<?xml version="1.0" standalone="no"?>
<!DOCTYPE svg PUBLIC "-//W3C//DTD SVG 20010904//EN"
 "http://www.w3.org/TR/2001/REC-SVG-20010904/DTD/svg10.dtd">
<svg version="1.0" xmlns="http://www.w3.org/2000/svg"
 width="1000.000000pt" height="1000.000000pt" viewBox="0 0 1000.000000 1000.000000"
 preserveAspectRatio="xMidYMid meet">
<metadata>
Created by potrace 1.11, written by Peter Selinger 2001-2013
</metadata>
<g transform="translate(0.000000,1000.000000) scale(0.100000,-0.100000)"
fill="#000000" stroke="none">
<path d="M3460 7205 c0 -17 -2 -17 -10 -5 -5 8 -10 10 -10 4 0 -12 -49 -12
-68 0 -7 4 -18 3 -25 -3 -8 -6 -18 -6 -27 -1 -8 5 -19 6 -25 2 -16 -10 -36
-11 -29 -1 8 13 -10 11 -25 -3 -11 -10 -13 -10 -7 0 8 14 -10 17 -19 2 -3 -5
-11 -10 -16 -10 -6 0 -7 6 -3 13 6 9 5 9 -8 0 -8 -7 -18 -10 -22 -6 -4 4 -4
-1 0 -11 5 -13 4 -17 -4 -12 -6 3 -13 2 -16 -3 -4 -5 5 -8 19 -7 13 2 22 -1
19 -5 -3 -5 -15 -9 -27 -9 -17 0 -19 -2 -7 -9 8 -6 17 -8 20 -6 4 2 6 -8 5
-22 0 -15 -7 -28 -15 -31 -13 -3 -12 -2 0 7 9 7 10 11 3 11 -20 0 -25 -18 -8
-28 9 -5 18 -17 20 -28 2 -10 4 -19 5 -19 1 0 3 -8 5 -19 3 -14 1 -16 -8 -7
-14 14 -30 15 -22 1 3 -5 0 -10 -7 -10 -8 0 -9 -3 -3 -8 12 -8 13 -32 2 -49
-4 -7 -1 -16 8 -21 9 -5 18 -17 20 -28 2 -10 4 -19 5 -19 1 0 3 -8 5 -19 3
-14 1 -16 -8 -7 -13 13 -31 15 -23 2 4 -5 1 -11 -6 -13 -7 -3 -5 -7 6 -11 10
-4 15 -3 11 3 -10 16 1 11 16 -7 10 -11 10 -14 2 -9 -8 4 -13 2 -13 -8 0 -8
-6 -17 -12 -19 -10 -4 -10 -6 0 -6 6 -1 12 -5 12 -11 0 -5 -6 -8 -12 -6 -7 1
-10 1 -5 -1 4 -3 4 -10 1 -15 -4 -7 -2 -8 4 -4 7 4 12 4 13 -1 0 -4 2 -19 3
-32 2 -13 -6 -31 -18 -43 -17 -15 -17 -18 -3 -13 9 4 17 3 17 -3 0 -6 -9 -14
-21 -17 -11 -4 -18 -9 -16 -12 3 -2 14 0 26 6 14 8 22 8 27 -1 4 -6 3 -9 -2
-6 -5 3 -15 0 -22 -8 -7 -8 -9 -14 -3 -14 17 0 20 -29 5 -45 -9 -8 -11 -15 -5
-15 6 0 11 -4 11 -10 0 -5 -6 -8 -12 -6 -7 1 -10 1 -5 -1 4 -3 4 -10 1 -15 -4
-7 -2 -8 4 -4 7 4 12 4 13 -1 0 -4 2 -19 3 -32 2 -13 -6 -31 -18 -43 -17 -15
-17 -18 -3 -13 9 4 17 3 17 -3 0 -6 -9 -14 -21 -17 -11 -4 -18 -9 -16 -12 3
-2 14 0 26 6 14 8 22 8 27 -1 4 -6 3 -9 -2 -6 -5 3 -15 0 -22 -8 -7 -8 -9 -14
-3 -14 17 0 20 -29 5 -45 -9 -8 -11 -15 -5 -15 6 0 11 -4 11 -10 0 -5 -6 -8
-12 -6 -7 1 -10 1 -5 -1 4 -3 4 -10 1 -15 -4 -7 -2 -8 4 -4 7 4 12 4 13 -1 0
-4 2 -19 3 -32 2 -13 -6 -31 -18 -43 -17 -15 -17 -18 -3 -13 9 4 17 3 17 -3 0
-6 -9 -14 -21 -17 -11 -4 -18 -9 -16 -12 3 -2 14 0 26 6 14 8 22 8 27 -1 4 -6
3 -9 -2 -6 -5 3 -15 0 -22 -8 -7 -8 -9 -14 -3 -14 17 0 20 -29 5 -45 -9 -8
-11 -15 -5 -15 6 0 11 -4 11 -10 0 -5 -6 -8 -12 -6 -7 1 -10 1 -5 -1 4 -3 4
-10 1 -15 -4 -7 -2 -8 4 -4 7 4 12 4 13 -1 0 -4 2 -19 3 -32 2 -13 -6 -31 -18
-43 -17 -15 -17 -18 -3 -13 9 4 17 3 17 -3 0 -6 -9 -14 -21 -17 -11 -4 -18 -9
-16 -12 3 -2 14 0 26 6 14 8 22 8 27 -1 4 -6 3 -9 -2 -6 -5 3 -15 0 -22 -8 -7
-8 -9 -14 -3 -14 17 0 20 -29 5 -45 -9 -8 -11 -15 -5 -15 6 0 11 -4 11 -10 0
-5 -6 -8 -12 -6 -7 1 -10 1 -5 -1 4 -3 4 -10 1 -15 -4 -7 -2 -8 4 -4 7 4 12 4
13 -1 0 -4 2 -19 3 -32 2 -13 -6 -31 -18 -43 -19 -18 -19 -19 -2 -12 14 5 17
4 12 -4 -4 -7 -2 -12 3 -12 6 0 11 -5 11 -10 0 -7 -8 -7 -22 1 -19 10 -18 6 7
-21 l30 -33 -30 19 c-21 13 -27 14 -19 4 6 -8 10 -23 9 -33 -3 -14 1 -16 17
-11 14 4 18 2 14 -5 -4 -6 -13 -11 -20 -11 -7 0 -12 -12 -11 -32 0 -18 -3 -38
-8 -45 -5 -7 -2 -15 8 -20 9 -5 18 -18 20 -29 2 -10 4 -19 5 -19 1 0 3 -8 5
-19 3 -14 1 -16 -8 -7 -13 13 -31 15 -23 2 4 -5 0 -12 -6 -14 -10 -4 -10 -6
-1 -6 7 -1 10 -8 7 -16 -4 -8 -1 -15 4 -15 6 0 9 9 7 21 -4 17 -2 19 11 9 11
-10 12 -16 3 -26 -6 -8 -8 -14 -3 -14 4 0 3 -5 -3 -11 -6 -6 -9 -19 -5 -28 5
-14 4 -15 -14 -1 -17 14 -18 14 -6 -2 8 -9 10 -23 6 -29 -5 -9 -2 -10 9 -6 9
3 19 2 22 -4 4 -5 3 -9 -2 -8 -4 1 -15 1 -23 0 -13 -1 -13 -2 0 -11 13 -8 13
-10 -1 -10 -16 0 -34 -26 -30 -44 1 -5 -6 -6 -16 -2 -16 5 -15 4 1 -9 11 -8
14 -15 7 -15 -7 0 -9 -4 -6 -10 3 -5 0 -7 -8 -4 -8 3 -14 -2 -14 -11 0 -8 4
-15 8 -15 4 0 6 -10 4 -22 -5 -25 14 -42 31 -27 9 8 12 3 10 -16 -3 -20 -1
-23 11 -14 11 10 12 8 7 -5 -5 -12 -2 -15 12 -10 12 3 10 -1 -6 -11 -14 -9
-17 -14 -7 -11 9 3 17 1 17 -4 0 -6 -6 -10 -14 -10 -7 0 -20 -8 -27 -17 -12
-15 -12 -16 1 -8 8 5 24 10 35 12 11 1 14 -1 7 -3 -6 -3 -9 -11 -5 -17 4 -7 0
-8 -11 -4 -9 4 -14 3 -11 -2 3 -5 0 -13 -6 -17 -9 -5 -8 -10 2 -18 8 -6 21
-20 29 -31 15 -20 15 -20 -8 0 -17 14 -23 15 -20 5 2 -8 9 -21 16 -28 18 -20
15 -31 -10 -42 -14 -5 -17 -9 -8 -9 8 -1 21 -10 28 -22 8 -12 10 -19 5 -16 -4
3 -14 -1 -21 -9 -7 -8 -9 -14 -3 -14 18 0 22 -34 5 -47 -10 -7 -14 -13 -8 -13
5 0 15 -9 22 -21 8 -12 10 -19 5 -16 -4 3 -14 -1 -21 -9 -7 -8 -9 -14 -3 -14
20 0 19 -31 -2 -51 -16 -15 -18 -19 -4 -14 9 4 17 3 17 -3 0 -6 -9 -14 -21
-17 -11 -4 -18 -9 -16 -12 3 -2 14 0 26 6 14 8 22 8 27 -1 4 -6 3 -9 -2 -6 -5
3 -15 0 -22 -8 -7 -8 -9 -14 -3 -14 17 0 20 -29 5 -45 -9 -8 -11 -15 -5 -15 6
0 11 -4 11 -10 0 -5 -6 -8 -12 -6 -7 1 -10 1 -5 -1 4 -3 4 -10 1 -15 -4 -7 -2
-8 4 -4 7 4 12 4 13 -1 0 -4 2 -19 3 -32 2 -13 -6 -31 -18 -43 -19 -18 -19
-19 -2 -12 13 5 17 4 13 -3 -4 -6 -2 -13 4 -15 12 -4 1 -38 -13 -38 -7 0 -6 5
1 14 9 10 8 15 -2 19 -14 5 -17 -26 -5 -39 4 -3 4 -12 1 -20 -3 -8 0 -14 7
-14 6 0 9 4 5 9 -3 6 5 15 17 21 19 9 21 9 7 -2 -9 -7 -15 -24 -14 -37 1 -13
-8 -32 -19 -43 -17 -15 -17 -18 -3 -13 9 4 17 3 17 -3 0 -6 -9 -14 -21 -17
-11 -4 -18 -9 -16 -12 3 -2 14 0 26 6 14 8 22 8 27 -1 4 -6 3 -9 -2 -6 -5 3
-15 0 -22 -8 -7 -8 -9 -14 -3 -14 17 0 20 -29 5 -45 -9 -8 -11 -15 -5 -15 6 0
11 -4 11 -10 0 -5 -6 -8 -12 -6 -7 1 -10 1 -5 -1 4 -3 4 -10 1 -15 -4 -7 -2
-8 4 -4 7 4 12 4 13 -1 0 -4 2 -19 3 -32 2 -13 -6 -31 -18 -43 -17 -15 -17
-18 -3 -13 16 7 25 -9 10 -18 -5 -2 -3 -2 4 -1 7 2 15 -2 19 -8 4 -6 3 -8 -4
-4 -5 3 -12 0 -15 -6 -2 -9 -8 -10 -18 -3 -9 6 -9 4 1 -5 22 -20 31 -48 19
-55 -5 -4 -13 4 -18 17 -6 13 -10 17 -10 10 -1 -23 19 -53 32 -46 7 4 9 4 5
-1 -4 -4 -2 -15 4 -24 7 -9 9 -13 4 -9 -4 4 -14 2 -21 -5 -9 -9 -9 -14 2 -25
19 -19 16 -31 -9 -42 -18 -7 -19 -9 -5 -9 16 -1 25 -31 9 -31 -5 0 -9 -7 -9
-15 0 -8 4 -15 9 -15 4 0 8 5 8 10 0 6 5 10 11 10 8 0 8 -4 1 -12 -5 -7 -9
-28 -7 -47 1 -23 -5 -39 -19 -53 -17 -15 -17 -18 -3 -13 9 4 17 3 17 -3 0 -6
-9 -14 -21 -17 -11 -4 -18 -9 -16 -12 3 -2 14 0 26 6 14 8 22 8 27 -1 4 -6 3
-9 -2 -6 -5 3 -15 0 -22 -8 -7 -8 -9 -14 -3 -14 17 0 20 -29 5 -45 -9 -8 -11
-15 -5 -15 6 0 11 -4 11 -10 0 -5 -6 -8 -12 -6 -7 1 -10 1 -5 -1 4 -3 4 -10 1
-15 -4 -7 -2 -8 4 -4 7 4 12 4 13 -1 0 -4 2 -19 3 -32 2 -13 -6 -31 -18 -43
-17 -15 -17 -18 -3 -13 9 4 17 3 17 -3 0 -6 -9 -14 -21 -17 -11 -4 -18 -9 -16
-12 3 -2 14 0 26 6 14 8 22 8 27 -1 4 -6 3 -9 -2 -6 -5 3 -15 0 -22 -8 -7 -8
-9 -14 -3 -14 18 0 22 -34 5 -47 -10 -7 -14 -13 -8 -13 5 0 15 -9 22 -21 8
-12 10 -19 5 -16 -4 3 -14 -1 -21 -9 -7 -8 -9 -14 -3 -14 19 0 20 -31 1 -47
-19 -17 -18 -33 3 -33 7 0 6 4 -3 10 -12 7 -10 9 8 7 27 -2 29 -14 2 -22 -21
-7 -18 -26 3 -21 7 1 9 1 4 -1 -4 -3 -5 -9 -2 -14 4 -5 -1 -6 -9 -3 -9 3 -16
1 -16 -5 0 -6 8 -11 18 -11 14 0 15 -2 2 -10 -13 -9 -7 -14 13 -11 14 2 7 -17
-9 -23 -10 -4 -13 -2 -8 7 5 8 2 7 -9 -2 -18 -15 -23 -26 -7 -16 5 3 10 2 10
-4 0 -5 -5 -11 -12 -13 -7 -3 -5 -7 6 -11 9 -4 15 -3 11 2 -3 5 -1 12 4 15 5
4 8 -2 6 -11 -1 -10 3 -24 9 -32 9 -12 8 -13 -3 -7 -9 6 -12 5 -9 -5 3 -8 1
-22 -3 -31 -17 -32 42 -44 64 -14 4 6 5 -1 3 -17 -3 -15 -1 -25 5 -22 5 4 9
13 9 20 0 9 6 12 15 9 8 -4 22 -1 30 6 9 7 15 8 15 2 0 -5 9 -12 21 -15 15 -4
19 -2 15 9 -4 10 -2 13 7 7 18 -11 36 -12 42 -3 3 5 21 2 40 -6 32 -13 35 -13
35 2 0 13 3 14 15 4 8 -7 22 -10 30 -6 9 3 15 0 15 -9 0 -8 4 -15 10 -15 5 0
7 7 3 16 -5 14 -3 15 15 5 17 -9 22 -9 22 1 0 9 3 9 9 -2 6 -8 7 -18 4 -24 -3
-5 -1 -6 5 -2 6 4 9 13 5 21 -4 11 -1 13 13 8 13 -5 15 -3 9 8 -7 11 -6 12 6
2 12 -10 18 -10 29 0 10 9 11 9 6 -1 -6 -9 -1 -12 18 -10 14 2 28 7 31 10 4 4
22 0 41 -8 31 -13 34 -13 34 3 0 13 3 14 12 5 14 -14 52 -16 43 -2 -3 5 11 2
31 -6 34 -14 36 -14 30 2 -6 15 -4 15 10 3 21 -17 18 -17 36 -2 12 10 18 10
34 -2 16 -13 16 -14 2 -9 -10 3 -18 2 -18 -3 0 -5 11 -9 24 -9 14 0 22 5 19
12 -2 7 1 15 8 20 8 4 10 3 5 -4 -5 -8 0 -11 16 -8 13 2 32 -1 43 -7 19 -10
19 -9 5 9 -14 17 -13 18 1 7 12 -10 18 -10 29 0 8 8 11 8 7 1 -4 -7 0 -14 8
-18 8 -3 15 -1 15 4 0 5 9 7 20 5 11 -2 20 1 20 6 0 6 5 7 10 4 6 -3 10 -11
10 -16 0 -6 -5 -7 -12 -3 -7 5 -8 3 -3 -6 6 -10 12 -7 27 11 15 20 17 21 11 4
-6 -17 -4 -18 9 -8 8 7 18 10 21 6 4 -3 7 -1 7 6 0 7 5 9 10 6 6 -3 10 -11 10
-16 0 -6 -5 -7 -12 -3 -7 5 -8 3 -3 -6 6 -10 12 -7 26 11 10 13 21 20 25 16 4
-4 2 -7 -4 -7 -6 0 -10 -9 -9 -19 0 -11 5 -17 9 -15 5 3 6 9 3 14 -3 4 4 10
14 13 15 4 19 0 16 -14 -2 -11 0 -17 6 -14 5 4 9 12 9 20 0 8 5 17 12 21 7 5
8 3 3 -6 -6 -10 -3 -12 15 -7 12 3 33 2 46 -3 16 -6 24 -6 24 1 0 6 5 7 10 4
6 -4 7 -11 4 -17 -4 -7 -2 -8 5 -4 6 4 9 11 6 16 -3 5 -1 11 4 14 5 4 12 2 16
-4 4 -6 10 -8 15 -5 5 3 20 1 34 -5 14 -5 26 -6 26 -1 0 5 7 12 16 15 9 3 12
2 9 -4 -4 -6 6 -10 24 -8 17 1 31 6 31 11 0 4 5 5 10 2 6 -3 10 -11 10 -16 0
-6 -5 -7 -12 -3 -7 5 -8 3 -3 -6 6 -10 12 -7 27 11 15 20 17 21 11 4 -6 -17
-4 -18 9 -8 8 7 18 10 21 6 4 -3 7 -1 7 6 0 7 5 9 10 6 6 -3 10 -11 10 -16 0
-6 -5 -7 -12 -3 -7 5 -8 3 -3 -6 6 -10 12 -7 24 9 16 21 18 21 55 6 36 -15 38
-15 32 1 -6 15 -4 15 10 3 21 -17 18 -17 36 -2 12 10 18 10 34 -2 16 -13 16
-14 2 -9 -10 3 -18 2 -18 -3 0 -5 11 -9 24 -9 14 0 22 5 19 12 -2 7 1 15 8 20
8 4 10 3 5 -4 -5 -8 0 -11 16 -8 13 2 32 -1 43 -7 19 -10 19 -9 5 9 -14 17
-13 18 1 7 12 -10 18 -10 29 0 8 8 11 8 7 1 -4 -7 -1 -14 7 -17 8 -3 17 1 20
8 4 12 11 12 42 -1 34 -14 36 -14 30 2 -6 15 -4 15 10 3 21 -17 18 -17 36 -2
12 10 18 10 34 -2 16 -13 16 -14 2 -9 -10 3 -18 2 -18 -3 0 -5 11 -9 24 -9 14
0 22 5 19 12 -2 7 1 15 8 20 8 4 10 3 5 -4 -5 -8 0 -11 16 -8 13 2 32 -1 43
-7 19 -10 19 -9 5 9 -14 17 -13 18 1 7 12 -10 18 -10 29 0 8 8 11 8 7 1 -4 -7
0 -14 8 -18 8 -3 15 -1 15 4 0 5 9 7 20 5 11 -2 20 1 20 6 0 6 5 7 10 4 6 -3
10 -11 10 -16 0 -6 -5 -7 -12 -3 -7 5 -8 3 -3 -6 6 -10 12 -7 27 11 15 20 17
21 11 4 -6 -17 -4 -18 9 -8 8 7 18 10 21 6 4 -3 7 -1 7 6 0 7 5 9 10 6 6 -3
10 -11 10 -16 0 -6 -5 -7 -12 -3 -7 5 -8 3 -3 -6 6 -10 12 -7 26 11 10 13 21
20 25 16 4 -4 2 -7 -4 -7 -6 0 -10 -9 -9 -19 0 -11 5 -17 9 -15 5 3 6 9 3 14
-3 4 4 10 14 13 15 4 19 0 16 -14 -2 -11 0 -17 6 -14 5 4 9 12 9 20 0 8 5 17
12 21 7 5 8 3 3 -6 -6 -10 -3 -12 15 -7 12 3 33 2 46 -3 16 -6 24 -6 24 1 0 6
5 7 10 4 6 -4 7 -11 4 -17 -4 -7 -2 -8 5 -4 6 4 9 11 6 16 -3 5 -1 11 4 14 5
4 12 2 16 -4 4 -6 10 -8 15 -5 5 3 20 1 34 -5 14 -5 26 -6 26 -1 0 5 7 12 16
15 9 3 12 2 9 -4 -4 -6 6 -10 24 -8 17 1 31 6 31 11 0 4 5 5 10 2 6 -3 10 -11
10 -16 0 -6 -5 -7 -12 -3 -7 5 -8 3 -3 -6 6 -10 12 -7 27 11 15 20 17 21 11 4
-6 -17 -4 -18 9 -8 8 7 18 10 21 6 4 -3 7 -1 7 6 0 7 5 9 10 6 6 -3 10 -11 10
-16 0 -6 -5 -7 -12 -3 -7 5 -8 3 -3 -6 6 -10 12 -7 24 9 16 21 18 21 55 6 36
-15 38 -15 32 1 -6 15 -4 15 10 3 21 -17 18 -17 36 -2 12 10 18 10 34 -2 16
-13 16 -14 2 -9 -10 3 -18 2 -18 -3 0 -5 11 -9 24 -9 14 0 22 5 19 12 -2 7 1
15 8 20 8 4 10 3 5 -4 -5 -8 0 -11 16 -8 13 2 32 -1 43 -7 19 -10 19 -9 5 9
-14 17 -13 18 1 7 12 -10 18 -10 29 0 8 8 11 8 7 1 -4 -7 0 -14 8 -18 8 -3 15
-1 15 5 0 6 6 9 14 6 7 -3 19 0 26 6 10 9 11 9 6 -1 -6 -10 0 -12 21 -9 15 2
34 0 41 -6 10 -8 14 -5 19 11 5 21 15 27 37 23 5 -1 4 4 -3 13 -8 10 -9 16 -1
21 6 4 7 12 2 18 -4 7 -7 22 -6 35 2 27 -4 28 -23 5 -9 -11 -12 -12 -7 -3 4 8
13 22 19 30 14 17 16 50 3 50 -4 0 -8 7 -8 16 0 9 -5 12 -12 8 -9 -6 -9 -3 0
9 8 9 11 21 7 26 -3 7 0 8 10 5 13 -5 13 -9 3 -22 -12 -14 -11 -14 9 -1 19 11
20 15 8 22 -9 4 -12 13 -9 19 5 7 2 8 -6 3 -9 -5 -10 -2 -5 14 5 17 3 20 -12
15 -14 -5 -15 -4 -3 4 8 6 17 9 21 6 4 -2 11 1 15 7 4 7 3 9 -3 6 -6 -4 -19 6
-28 21 -18 27 -18 27 2 9 16 -14 20 -15 20 -2 0 8 -4 15 -9 15 -4 0 -8 5 -8
11 0 5 4 8 9 5 5 -3 8 10 6 29 -1 23 3 39 13 44 11 6 8 8 -11 9 -16 0 -24 -5
-20 -11 3 -6 1 -7 -6 -3 -12 8 -8 19 17 49 8 9 12 20 9 24 -4 4 -14 -2 -23
-13 -14 -18 -15 -18 -4 4 9 18 8 27 -2 40 -9 11 -10 14 0 8 6 -4 12 -3 12 1 0
5 -6 15 -12 23 -11 12 -10 12 5 1 9 -7 17 -10 17 -6 0 5 -8 17 -17 28 -18 20
-18 20 12 1 21 -13 27 -14 19 -4 -5 8 -9 25 -8 38 0 12 -3 22 -7 22 -5 0 -9 7
-9 16 0 9 -5 12 -12 8 -9 -6 -9 -3 0 9 8 9 11 21 7 26 -3 7 0 8 10 5 13 -5 13
-9 3 -23 -12 -14 -11 -15 5 -2 12 9 14 17 7 26 -5 6 -6 16 -2 20 4 5 1 4 -7 0
-10 -6 -13 -4 -9 6 3 8 9 22 13 32 4 10 3 17 -4 17 -6 0 -10 -5 -8 -11 1 -6
-5 -14 -13 -16 -13 -4 -13 -3 0 6 8 6 11 11 6 11 -5 0 -1 9 9 20 10 11 15 23
12 27 -4 4 -14 -2 -23 -13 -14 -18 -15 -18 -4 4 9 18 8 27 -2 40 -9 11 -10 14
0 8 6 -4 12 -3 12 1 0 5 -6 15 -12 23 -11 12 -10 12 5 1 9 -7 17 -10 17 -6 0
5 -8 17 -17 28 -18 20 -18 20 12 1 21 -13 27 -14 19 -4 -5 8 -9 25 -8 38 0 12
-3 22 -7 22 -5 0 -9 7 -9 16 0 9 -5 12 -12 8 -9 -6 -9 -3 0 9 8 9 11 21 7 26
-3 7 0 8 10 5 13 -5 13 -9 3 -23 -12 -14 -11 -15 5 -2 12 9 14 17 7 26 -5 6
-6 16 -2 20 4 5 1 5 -7 0 -10 -6 -12 -2 -6 14 5 17 3 20 -12 15 -14 -5 -15 -4
-3 4 8 6 17 9 21 6 4 -2 11 1 15 7 4 7 3 9 -3 6 -6 -4 -19 6 -28 21 -18 27
-18 27 2 9 16 -14 20 -15 20 -2 0 8 -4 15 -9 15 -4 0 -8 5 -8 11 0 5 4 8 9 5
5 -3 8 10 6 29 -1 23 3 39 13 44 11 6 8 8 -11 8 -16 1 -24 -4 -20 -10 3 -6 1
-7 -6 -3 -8 6 -9 12 -2 20 6 7 7 16 3 21 -4 4 4 2 18 -5 21 -11 23 -11 14 1
-5 8 -9 24 -8 37 0 12 -3 22 -9 22 -6 0 -7 3 -4 7 4 3 -1 15 -10 26 -10 11
-12 17 -5 13 6 -4 12 -3 12 3 0 5 -3 11 -7 14 -5 2 -2 2 5 1 6 -2 13 0 13 4 6
32 5 52 -2 52 -5 0 -9 7 -9 16 0 9 -5 12 -12 8 -9 -6 -9 -3 0 9 8 9 11 21 7
26 -3 7 0 8 10 5 13 -5 13 -9 3 -22 -12 -14 -11 -14 9 -1 19 11 20 15 8 22 -9
4 -12 13 -9 19 5 7 2 8 -6 3 -9 -5 -10 -2 -5 14 5 17 3 20 -12 15 -14 -5 -15
-4 -3 4 8 6 17 9 21 6 4 -2 11 1 15 7 4 8 3 9 -4 5 -6 -4 -16 4 -23 16 -11 20
-10 21 3 11 12 -10 15 -10 15 2 0 8 -3 15 -6 15 -4 0 -12 10 -20 23 l-14 22
22 -20 c26 -23 26 -1 1 25 -9 8 -14 14 -11 13 2 -2 10 2 18 8 11 10 11 15 1
28 -12 14 -11 14 4 2 10 -7 15 -18 11 -25 -4 -7 -1 -7 8 1 12 10 18 10 28 0
11 -10 11 -7 1 13 -12 23 -12 24 3 11 10 -7 17 -11 17 -7 0 3 11 1 25 -4 14
-5 27 -6 30 0 6 10 45 9 45 -1 0 -13 29 -18 36 -7 4 6 3 8 -4 4 -6 -3 -14 -1
-18 5 -4 8 -3 9 4 5 7 -4 12 -1 12 6 0 8 5 5 11 -5 10 -18 12 -18 34 3 20 19
24 20 38 6 13 -14 16 -14 21 0 3 8 2 12 -4 9 -6 -3 -10 1 -10 10 0 9 5 13 10
10 6 -3 10 3 10 14 0 11 5 23 11 27 8 5 8 9 -1 14 -9 6 -6 10 9 15 12 3 19 11
15 16 -3 5 -10 6 -16 3 -6 -4 -9 -1 -6 6 2 8 10 16 18 18 7 3 10 0 6 -6 -3 -6
-2 -14 4 -17 6 -4 9 -3 8 2 -2 4 2 8 7 8 6 0 9 -5 7 -11 -1 -7 2 -15 8 -19 5
-3 10 -12 10 -18 0 -7 -5 -4 -11 6 -5 9 -14 17 -19 17 -14 0 -8 -23 10 -37 8
-7 11 -13 5 -13 -5 0 -3 -5 5 -11 13 -9 13 -10 0 -6 -8 2 -14 10 -12 17 2 11
0 11 -12 1 -10 -8 -16 -9 -21 -1 -3 5 -1 10 6 10 7 0 10 3 6 6 -3 3 -11 3 -17
-1 -8 -5 -8 -11 1 -21 6 -7 15 -11 20 -9 10 7 32 -32 25 -44 -3 -4 1 -8 9 -8
8 0 11 5 8 11 -4 6 0 5 9 -1 8 -7 19 -9 24 -5 4 4 3 0 -4 -9 -9 -13 -9 -16 3
-16 8 0 12 3 10 7 -2 3 0 12 6 20 7 12 9 12 9 -4 0 -11 5 -16 14 -13 7 3 18 1
24 -5 6 -6 12 -6 17 3 5 7 4 10 -2 6 -6 -4 -13 0 -16 8 -5 11 -1 12 16 5 12
-4 21 -13 19 -20 -1 -6 2 -9 8 -5 6 3 8 11 5 16 -4 5 -1 9 4 9 6 0 11 -4 11
-10 0 -5 5 -10 11 -10 5 0 8 4 5 8 -3 5 1 9 9 9 8 0 15 -4 15 -9 0 -4 5 -8 11
-8 5 0 8 4 5 8 -7 12 27 11 35 0 3 -5 12 -1 20 8 12 16 12 17 -1 10 -11 -6
-11 -4 1 6 11 9 14 20 8 33 -4 11 -5 31 -2 44 5 18 3 22 -7 16 -9 -5 -11 -4
-6 3 4 7 13 12 21 12 8 0 16 4 20 9 3 6 -3 8 -14 6 -14 -3 -18 1 -14 16 3 10
9 17 13 14 5 -3 11 -2 14 3 2 4 -4 9 -15 9 -10 1 -19 -3 -19 -9 0 -6 -3 -8 -7
-4 -4 4 3 15 16 25 18 14 21 20 11 26 -9 5 -11 4 -6 -3 4 -7 3 -12 -3 -12 -5
0 -13 5 -16 10 -3 6 -1 10 6 10 7 0 9 3 6 7 -4 3 -1 13 6 21 10 13 9 15 -8 9
-17 -6 -16 -4 4 11 18 15 21 21 11 27 -9 5 -11 4 -6 -3 4 -7 3 -12 -3 -12 -5
0 -13 5 -16 10 -3 6 -2 10 3 10 6 0 9 14 8 30 -1 20 3 30 12 30 7 0 11 4 7 10
-3 5 -13 7 -23 4 -13 -5 -14 -4 -3 4 8 6 11 17 8 26 -4 9 -2 16 3 16 5 0 7 7
4 15 -4 8 -11 12 -17 8 -6 -4 -7 -1 -1 8 13 22 14 43 1 51 -9 6 -9 8 1 8 6 0
12 5 12 11 0 5 -6 7 -12 3 -10 -6 -10 -4 0 8 10 13 10 17 -3 22 -9 3 -13 2
-10 -4 3 -6 1 -10 -4 -10 -6 0 -11 10 -11 21 0 19 -2 20 -17 8 -9 -8 -14 -9
-10 -2 4 6 0 18 -8 26 -11 12 -12 17 -2 20 8 4 7 6 -3 6 -9 1 -21 -4 -26 -9
-7 -7 -11 -6 -11 4 0 8 4 13 9 10 4 -3 8 0 8 5 0 6 -5 11 -10 11 -6 0 -22 7
-36 16 -19 13 -22 19 -13 30 10 12 9 13 -5 8 -12 -5 -15 -2 -10 12 3 12 2 15
-3 8 -10 -13 -65 -25 -57 -13 3 5 -2 9 -10 9 -9 0 -16 -5 -16 -12 0 -6 -7 -3
-15 8 -13 16 -14 16 -9 1 5 -13 2 -16 -10 -11 -9 3 -16 11 -16 18 0 8 -3 8 -8
0 -9 -13 -45 -27 -38 -15 3 5 -1 12 -10 15 -8 3 -13 2 -10 -3 3 -5 -3 -11 -14
-14 -11 -3 -23 -1 -26 5 -4 6 -10 5 -15 -3 -7 -11 -9 -11 -9 -1 0 10 -5 10
-21 1 -16 -8 -20 -8 -14 0 5 8 -1 10 -19 5 -16 -4 -32 -1 -41 6 -13 11 -14 10
-10 -2 5 -12 0 -14 -22 -10 -15 2 -34 10 -42 16 -11 8 -13 8 -7 -1 4 -8 2 -13
-4 -13 -7 0 -10 -7 -6 -17 6 -17 5 -17 -8 0 -7 9 -18 17 -24 17 -22 0 -31 34
-15 53 9 9 13 20 10 24 -4 4 -14 -2 -23 -13 -14 -18 -15 -18 -4 4 6 12 8 28 4
35 -5 7 1 5 11 -3 17 -13 16 -10 -4 25 -20 34 -20 38 -4 22 16 -14 20 -15 20
-2 0 8 -4 15 -9 15 -4 0 -8 5 -8 11 0 5 4 8 9 5 5 -3 8 10 6 29 -1 23 3 39 13
44 11 6 8 9 -11 9 -16 0 -24 -5 -20 -11 3 -6 1 -7 -6 -3 -12 8 -8 19 17 49 8
9 12 20 9 24 -4 4 -14 -2 -23 -13 -14 -18 -15 -18 -4 4 9 18 8 27 -2 40 -9 11
-10 14 0 8 6 -4 12 -3 12 1 0 5 -6 15 -12 23 -11 12 -10 12 5 1 9 -7 17 -10
17 -6 0 5 -8 17 -17 28 -18 20 -18 20 12 1 21 -13 27 -14 19 -4 -5 8 -9 25 -8
38 0 12 -3 22 -7 22 -5 0 -9 7 -9 16 0 9 -5 12 -12 8 -9 -6 -9 -3 0 9 8 9 11
21 7 26 -3 7 0 8 10 5 13 -5 13 -9 3 -23 -12 -14 -11 -15 5 -2 12 9 14 17 7
26 -5 6 -6 16 -2 20 4 5 1 5 -7 0 -10 -6 -12 -2 -6 14 5 17 3 20 -12 15 -14
-5 -15 -4 -3 4 8 6 17 9 21 6 4 -2 11 1 15 7 4 8 3 9 -4 5 -6 -3 -16 3 -22 15
-10 17 -9 20 1 14 9 -6 10 -3 6 8 -4 10 -10 24 -13 32 -3 8 -1 15 6 15 6 0 9
-4 5 -9 -3 -5 -2 -12 3 -15 4 -2 8 14 7 37 0 36 -3 42 -20 39 -19 -2 -19 -2
-2 9 16 9 17 13 4 27 -8 10 -13 27 -12 39 1 12 -1 20 -5 18 -3 -2 -11 5 -18
16 -9 14 -9 19 0 19 6 0 8 3 5 6 -4 4 -13 1 -22 -6 -9 -7 -17 -11 -18 -9 -1 2
-9 16 -16 31 -8 15 -17 25 -21 23 -4 -2 -13 7 -20 21 -8 14 -20 22 -27 19 -8
-2 -12 -1 -9 4 7 10 -18 34 -26 25 -3 -3 -5 1 -5 8 1 7 -2 13 -6 13 -12 0 -29
34 -22 45 3 5 -4 7 -16 5 -17 -4 -19 -2 -8 11 10 12 9 13 -3 9 -8 -3 -21 2
-29 11 -8 10 -9 15 -2 11 6 -4 15 -2 19 4 4 8 3 9 -4 5 -7 -4 -12 -2 -12 4 0
6 -4 8 -10 5 -5 -3 -25 10 -44 29 -18 19 -37 32 -42 28 -5 -4 -2 1 5 10 11 15
10 17 -9 13 -17 -3 -20 0 -15 14 4 15 1 18 -20 15 -19 -2 -23 1 -17 9 6 8 3
19 -10 32 -19 19 -19 19 -12 0 7 -17 6 -18 -8 -5 -9 8 -15 20 -15 25 1 6 -4 9
-12 7 -12 -3 -12 0 -1 13 11 13 10 15 -2 10 -10 -4 -24 4 -36 20 -13 17 -26
24 -34 19 -7 -4 -10 -4 -6 1 10 10 -11 37 -23 29 -5 -3 -6 2 -3 10 4 9 -1 18
-10 22 -9 3 -16 12 -16 19 0 13 -36 31 -53 27 -4 -1 -3 7 4 19 8 15 8 19 0 15
-6 -4 -11 -3 -11 3 0 5 -9 8 -20 6 -11 -2 -18 0 -15 5 3 5 -3 14 -12 20 -17
11 -17 11 0 6 9 -3 17 -1 17 4 0 6 -7 10 -15 10 -8 0 -15 6 -15 13 0 8 -4 7
-11 -3 -9 -12 -10 -11 -6 6 4 17 0 20 -19 18 -13 -1 -22 2 -18 7 3 5 11 7 17
3 7 -3 3 2 -8 10 -11 9 -25 14 -31 12 -8 -3 -10 3 -7 17 4 18 3 19 -6 7 -9
-12 -11 -11 -11 8 0 13 -4 20 -10 17 -5 -3 -10 1 -10 10 0 9 -4 13 -10 10 -5
-3 -10 1 -10 9 0 14 -19 21 -43 17 -5 -1 -6 3 -2 9 9 14 -22 43 -37 34 -7 -4
-10 -4 -6 1 9 10 -11 37 -22 30 -4 -3 -7 1 -6 8 0 6 -3 13 -9 15 -14 5 -27 31
-20 42 3 5 -4 7 -16 5 -17 -4 -19 -2 -8 11 10 12 9 13 -3 9 -10 -4 -24 4 -37
21 -11 15 -21 23 -21 19 0 -4 -9 4 -21 19 -11 14 -26 23 -32 19 -7 -4 -8 0 -3
12 6 18 6 18 -12 2 -14 -13 -21 -14 -30 -5 -9 9 -12 9 -12 0 0 -6 -7 -9 -15
-6 -8 4 -12 11 -8 18 3 6 -2 4 -13 -4 -21 -17 -42 -19 -63 -6 -10 6 -12 5 -7
-2 11 -18 -5 -14 -19 5 -9 13 -14 13 -20 3 -6 -9 -4 -11 5 -5 9 5 11 4 6 -4
-6 -9 -11 -9 -22 0 -11 9 -14 8 -14 -2 0 -11 -2 -11 -9 0 -8 12 -12 12 -24 2
-11 -9 -17 -9 -22 0 -6 8 -10 7 -16 -2 -6 -9 -9 -10 -9 -2 0 9 -19 11 -40 3
-15 -6 -37 -4 -49 5 -11 8 -13 7 -7 -4 6 -9 5 -12 -5 -9 -8 3 -13 12 -11 19 1
9 -3 7 -12 -4 -14 -18 -15 -18 -25 0 -10 17 -10 17 -11 -2 0 -17 -2 -17 -10
-5 -5 8 -10 10 -10 4 0 -11 -55 -12 -66 -1 -4 3 -16 2 -27 -4 -15 -9 -18 -8
-12 2 6 8 4 10 -6 4 -20 -13 -49 -13 -56 -2 -4 6 -1 7 7 2 9 -6 11 -4 5 5 -6
10 -10 10 -20 -3 -10 -14 -12 -14 -23 1 -7 9 -10 12 -7 5 3 -6 1 -14 -5 -18
-5 -3 -10 -2 -10 2 0 5 -12 8 -27 7 -16 -1 -28 -3 -28 -4 0 -1 -10 -3 -22 -4
-12 -1 -20 1 -17 6 3 4 1 8 -5 8 -5 0 -13 -5 -16 -10 -5 -8 -11 -7 -21 1 -11
9 -14 8 -14 -2 0 -12 -2 -12 -9 0 -6 9 -11 10 -15 2 -9 -15 -28 -3 -20 12 3 7
-1 4 -9 -6 -15 -18 -16 -18 -26 0 -10 17 -10 17 -11 -2 0 -17 -2 -17 -10 -5
-5 8 -10 10 -10 4 0 -12 -49 -12 -68 0 -7 4 -18 4 -25 -1 -15 -11 -38 -10 -56
1 -10 6 -12 5 -7 -2 11 -18 -5 -14 -19 5 -9 13 -14 13 -20 3 -6 -9 -4 -11 5
-5 9 5 11 4 6 -4 -6 -9 -11 -9 -22 0 -11 9 -14 8 -14 -2 0 -11 -2 -11 -9 0 -8
12 -12 12 -24 2 -11 -9 -17 -9 -22 0 -6 8 -10 7 -16 -2 -6 -9 -9 -10 -9 -2 0
9 -19 11 -40 3 -15 -6 -37 -4 -49 5 -11 8 -13 7 -7 -4 6 -9 5 -12 -5 -9 -8 3
-13 12 -11 19 1 9 -3 7 -12 -4 -14 -18 -15 -18 -25 0 -10 17 -10 17 -11 -2 0
-17 -2 -17 -10 -5 -5 8 -10 10 -10 4 0 -11 -55 -12 -66 -1 -4 3 -16 2 -27 -4
-15 -9 -18 -8 -12 2 6 8 4 10 -6 4 -20 -13 -49 -13 -56 -2 -4 6 -1 7 7 2 9 -6
11 -4 5 5 -6 10 -10 10 -20 -3 -10 -14 -12 -14 -23 1 -7 9 -10 12 -7 5 3 -6 1
-14 -5 -18 -5 -3 -10 -2 -10 2 0 5 -12 8 -27 7 -16 -1 -28 -3 -28 -4 0 -1 -10
-3 -22 -4 -12 -1 -20 1 -17 6 3 4 1 8 -5 8 -5 0 -13 -5 -16 -10 -5 -8 -11 -7
-21 1 -11 9 -14 8 -14 -2 0 -12 -2 -12 -9 0 -6 9 -11 10 -15 2 -9 -15 -28 -3
-20 12 3 7 -1 4 -9 -6 -15 -18 -16 -18 -26 0 -10 17 -10 17 -11 -2z m1807
-212 c-1 -10 -6 -23 -9 -29 -4 -6 -1 -11 7 -11 8 0 13 3 10 5 -10 10 17 31 32
25 10 -4 14 -2 9 5 -3 6 -2 13 3 17 6 3 8 -4 6 -15 -4 -18 0 -21 23 -17 15 2
21 2 15 0 -21 -7 -14 -26 7 -20 11 3 18 1 15 -3 -3 -5 -1 -11 5 -15 7 -4 7
-13 -1 -26 -5 -11 -7 -29 -3 -41 4 -15 3 -18 -6 -13 -8 5 -11 4 -6 -3 3 -6 -2
-18 -11 -28 -16 -16 -16 -16 4 -10 13 4 24 2 29 -5 5 -8 3 -9 -6 -4 -10 6 -12
4 -7 -9 4 -10 7 -22 7 -27 0 -6 5 -7 12 -3 7 4 8 3 4 -5 -4 -6 -11 -9 -16 -6
-4 3 -13 -1 -19 -9 -9 -11 -8 -14 5 -12 9 0 19 -6 21 -14 4 -13 3 -13 -6 0 -8
11 -11 12 -11 2 0 -7 -4 -10 -10 -7 -6 3 -7 -1 -4 -9 3 -9 10 -14 14 -11 4 3
10 -4 13 -16 4 -16 3 -18 -8 -9 -10 8 -15 8 -21 -1 -5 -8 -3 -9 6 -4 10 6 12
4 7 -8 -4 -10 -2 -16 5 -14 6 1 11 -8 13 -20 1 -15 -3 -19 -14 -15 -13 4 -13
2 2 -15 11 -13 14 -23 8 -27 -6 -4 -7 -14 -4 -23 5 -12 3 -14 -7 -8 -8 5 -11
4 -6 -3 3 -6 -2 -18 -11 -28 -16 -16 -16 -16 4 -10 13 4 24 2 29 -5 5 -8 3 -9
-6 -4 -10 6 -12 4 -7 -9 4 -10 7 -22 7 -27 0 -6 5 -7 12 -3 7 4 8 3 4 -5 -4
-6 -11 -9 -16 -6 -4 3 -13 -1 -19 -9 -9 -11 -8 -14 5 -12 9 0 19 -6 21 -14 4
-13 3 -13 -6 0 -8 11 -11 12 -11 2 0 -7 -4 -10 -10 -7 -6 3 -7 -1 -4 -9 3 -9
10 -14 14 -11 4 3 10 -4 13 -16 4 -16 3 -18 -8 -9 -10 8 -15 8 -21 -1 -5 -8
-3 -9 6 -4 10 6 12 4 7 -8 -4 -10 -2 -16 5 -14 6 1 11 -8 13 -20 1 -15 -3 -19
-14 -15 -13 4 -13 2 2 -15 11 -13 14 -23 8 -27 -6 -4 -7 -14 -4 -23 5 -12 3
-14 -7 -8 -8 5 -11 4 -6 -3 3 -6 -2 -18 -11 -28 -16 -16 -16 -16 4 -10 13 4
24 2 29 -5 4 -8 3 -9 -4 -5 -7 4 -12 2 -12 -4 0 -6 7 -13 16 -17 15 -5 15 -7
0 -15 -9 -5 -16 -14 -16 -19 0 -6 4 -7 10 -4 6 3 7 -1 3 -10 -4 -12 -8 -13
-13 -5 -4 7 -7 1 -7 -14 0 -14 4 -26 9 -26 5 0 6 5 3 10 -3 6 1 10 10 10 9 0
14 -4 11 -9 -9 -14 31 -20 45 -7 9 8 10 8 6 0 -4 -7 0 -15 8 -18 9 -3 18 1 22
9 5 13 7 13 18 -2 8 -10 17 -15 21 -10 4 4 2 7 -4 7 -7 0 -12 4 -12 8 0 14 63
1 83 -16 10 -9 18 -12 17 -7 -2 6 -2 17 -1 25 1 11 4 11 13 2 14 -14 32 -16
24 -3 -4 5 3 7 14 4 11 -3 17 -10 14 -17 -3 -6 2 -2 10 8 12 15 16 16 17 5 0
-11 2 -11 6 0 5 11 7 11 14 0 7 -12 9 -12 9 0 0 11 4 9 15 -5 13 -16 14 -16 9
-1 -8 21 0 22 20 1 14 -13 16 -14 16 0 0 8 4 18 10 21 5 3 7 0 4 -9 -4 -12 1
-13 30 -6 23 5 38 4 43 -3 4 -6 1 -7 -7 -2 -9 6 -11 4 -5 -5 6 -10 10 -10 19
2 13 17 39 12 30 -5 -3 -7 2 -3 10 7 12 15 16 16 16 5 0 -12 2 -12 10 1 9 13
10 13 10 0 0 -12 2 -12 9 -2 7 11 9 11 14 -2 4 -9 12 -16 19 -15 10 0 10 2 1
6 -7 2 -13 8 -13 12 0 10 69 1 76 -10 7 -12 24 -11 24 2 0 5 -4 7 -10 4 -5 -3
-10 -1 -10 4 0 14 6 14 31 1 13 -8 19 -7 19 0 0 6 7 4 16 -4 18 -19 21 -19 30
-4 4 6 3 8 -4 4 -6 -3 -13 -2 -16 2 -6 11 34 9 52 -1 7 -5 12 -3 12 4 0 7 7 4
15 -7 14 -18 15 -18 9 0 -6 16 -4 17 14 7 17 -9 22 -9 22 1 0 7 8 -3 18 -22
10 -19 16 -39 13 -44 -2 -5 -5 -27 -5 -48 -1 -29 2 -37 13 -33 11 4 11 3 2 -9
-7 -8 -9 -21 -5 -27 5 -8 3 -10 -7 -4 -10 6 -9 3 2 -11 20 -23 14 -45 -9 -37
-14 5 -13 3 2 -9 14 -11 16 -17 7 -22 -9 -6 -8 -13 6 -29 10 -11 12 -17 5 -13
-10 6 -13 3 -11 -10 2 -11 0 -25 -4 -31 -5 -8 -3 -13 4 -13 10 0 10 -3 2 -11
-8 -8 -9 -20 -2 -36 8 -22 7 -24 -8 -19 -17 6 -17 5 -1 -7 13 -11 15 -16 6
-25 -9 -9 -9 -12 1 -12 7 0 9 -5 5 -12 -12 -19 -12 -48 -1 -48 6 0 7 -3 4 -7
-4 -3 -1 -13 6 -21 9 -13 9 -14 0 -8 -9 5 -13 1 -14 -11 -1 -10 -2 -25 -3 -33
-1 -8 2 -25 6 -37 5 -16 3 -23 -5 -24 -9 0 -9 -2 1 -6 9 -4 10 -8 2 -18 -7 -9
-8 -15 -1 -19 18 -12 1 -34 -21 -28 -14 3 -19 1 -14 -6 15 -25 -3 -11 -20 16
-17 26 -17 27 2 12 17 -14 18 -13 7 1 -7 9 -9 19 -5 24 4 4 -3 2 -15 -4 -20
-10 -22 -9 -16 6 5 13 3 15 -11 10 -9 -4 -15 -3 -12 1 3 5 -11 26 -31 48 -19
21 -30 29 -24 17 14 -27 4 -31 -14 -6 -7 9 -24 18 -38 18 -22 2 -24 -1 -17
-15 8 -15 5 -17 -21 -15 -17 2 -35 7 -40 12 -12 12 -61 4 -54 -8 10 -16 -40 1
-54 18 -13 17 -13 16 -8 -3 3 -16 0 -21 -12 -19 -9 1 -21 -1 -27 -6 -7 -5 -11
-3 -11 5 0 8 8 13 17 11 9 -2 17 3 17 11 0 10 -4 11 -14 3 -7 -6 -13 -8 -13
-4 0 4 -6 2 -14 -5 -8 -6 -12 -19 -9 -28 6 -14 5 -15 -9 -2 -15 14 -15 17 0
35 17 20 17 20 -5 1 -18 -15 -20 -22 -12 -33 12 -13 3 -17 -31 -14 -12 2 -12
0 -2 -7 8 -5 13 -13 13 -18 -1 -5 5 -16 12 -25 16 -18 18 -49 4 -49 -5 0 -7 7
-4 14 4 10 1 13 -8 10 -11 -5 -12 -10 -3 -24 7 -10 16 -16 22 -13 5 3 6 1 2
-5 -11 -17 23 -29 63 -22 43 8 63 3 55 -13 -3 -7 2 -3 10 7 9 11 16 15 16 8 0
-6 7 -9 16 -5 9 3 20 0 24 -7 4 -7 20 -12 34 -12 21 0 24 -3 13 -12 -18 -15
-50 -67 -40 -65 20 3 25 -2 14 -15 -9 -11 -6 -13 14 -10 22 2 24 0 14 -12 -9
-11 -9 -17 1 -29 10 -12 9 -16 -5 -21 -13 -5 -14 -9 -3 -15 11 -7 10 -10 -1
-21 -11 -11 -13 -11 -6 1 5 9 4 12 -3 7 -6 -3 -13 2 -15 11 -4 16 -5 16 -6 1
0 -9 4 -20 9 -23 6 -3 10 -11 10 -16 0 -6 -4 -8 -9 -4 -5 3 -13 0 -17 -7 -4
-7 -4 -10 1 -6 4 4 14 3 22 -4 11 -9 13 -8 11 2 -2 7 3 14 10 15 7 2 8 1 2 -2
-5 -2 -8 -8 -5 -13 3 -4 -3 -14 -12 -21 -12 -10 -14 -10 -9 -1 12 19 1 14 -20
-10 -15 -19 -16 -20 -1 -9 9 7 17 9 17 3 0 -15 -32 -24 -40 -11 -6 8 -9 8 -14
0 -4 -6 -12 -11 -18 -11 -7 0 -7 4 0 13 8 10 6 13 -9 13 -12 0 -18 -5 -15 -13
3 -7 1 -13 -4 -13 -6 0 -10 5 -10 12 0 6 -3 8 -7 5 -3 -4 -12 -2 -20 5 -11 9
-13 8 -11 -3 2 -8 8 -17 13 -21 6 -5 5 -8 -3 -8 -7 0 -15 7 -18 15 -7 17 -38
15 -57 -4 -9 -9 -9 -14 3 -21 8 -5 18 -6 24 -3 5 3 6 1 2 -5 -4 -6 -14 -8 -24
-5 -16 7 -16 5 0 -18 13 -20 13 -26 3 -26 -8 0 -12 4 -9 8 2 4 0 10 -5 13 -14
9 -7 -19 9 -40 13 -15 13 -16 1 -9 -11 6 -13 4 -8 -9 11 -27 -3 -40 -20 -19
-13 17 -13 16 -3 -5 8 -17 15 -20 28 -13 20 10 43 3 58 -18 11 -14 73 -24 72
-11 -2 19 4 21 15 5 11 -14 16 -15 22 -5 5 8 4 11 -2 7 -5 -3 -10 0 -10 7 0
11 4 12 18 3 14 -9 16 -14 6 -27 -10 -13 -10 -13 4 -3 9 7 19 9 23 5 4 -4 7
-2 6 3 -5 23 1 28 13 10 11 -14 16 -15 22 -5 5 8 4 11 -2 7 -5 -3 -10 0 -10 7
0 11 4 12 18 3 14 -9 16 -14 6 -27 -10 -12 -8 -12 8 1 11 9 27 14 35 11 13 -5
13 -3 0 14 -14 18 -14 18 5 4 11 -8 23 -19 27 -25 5 -6 8 -5 8 2 0 7 7 10 18
7 14 -5 14 -4 2 4 -8 6 -19 8 -25 4 -5 -3 -4 2 4 11 10 13 17 14 27 7 10 -9
11 -6 7 12 -4 18 -3 20 6 8 9 -13 11 -13 11 1 0 9 10 24 23 33 12 9 15 14 7
10 -8 -4 -11 -3 -7 1 12 13 37 15 37 2 0 -5 3 -7 6 -4 4 4 1 13 -5 21 -9 11
-9 16 0 22 8 5 10 3 5 -7 -5 -10 -3 -9 6 1 20 23 41 18 45 -10 2 -18 1 -21 -6
-10 -5 8 -7 18 -4 24 3 5 1 6 -6 2 -9 -6 -8 -14 3 -32 18 -27 20 -38 6 -29 -5
3 -10 1 -10 -4 0 -6 4 -11 9 -11 5 0 12 -7 15 -16 3 -9 2 -12 -5 -8 -6 4 -9
-1 -8 -12 2 -11 0 -25 -4 -31 -5 -8 -3 -13 4 -13 10 0 10 -3 2 -11 -8 -8 -9
-20 -2 -36 8 -22 7 -24 -8 -19 -17 6 -17 5 -1 -7 13 -11 15 -16 6 -25 -9 -9
-9 -12 1 -12 7 0 9 -5 5 -12 -12 -19 -12 -48 -1 -48 6 0 7 -3 4 -7 -4 -3 -1
-13 6 -21 9 -13 9 -14 0 -8 -13 7 -15 -1 -15 -54 0 -14 -5 -28 -12 -32 -8 -6
-7 -8 2 -8 7 0 10 -5 6 -12 -4 -6 -3 -8 4 -4 5 3 12 0 15 -6 7 -21 -4 -37 -21
-31 -13 4 -13 2 2 -9 14 -11 16 -17 7 -22 -9 -6 -8 -13 6 -29 10 -11 12 -17 5
-13 -10 6 -13 3 -11 -10 2 -11 0 -25 -4 -31 -5 -8 -3 -13 4 -13 10 0 10 -3 2
-11 -8 -8 -9 -20 -2 -36 8 -22 7 -24 -8 -19 -17 6 -17 5 -1 -7 13 -11 15 -16
6 -25 -9 -9 -9 -12 1 -12 7 0 9 -5 5 -12 -12 -19 -12 -48 -1 -48 6 0 7 -3 4
-7 -4 -3 -1 -13 6 -21 9 -13 9 -14 0 -8 -13 7 -15 -1 -15 -54 0 -14 -5 -28
-12 -32 -8 -6 -7 -8 2 -8 7 0 10 -5 6 -12 -4 -6 -3 -8 4 -4 5 3 12 0 15 -6 7
-21 -4 -37 -21 -31 -13 4 -13 2 2 -9 14 -11 16 -17 7 -22 -9 -6 -8 -13 6 -29
10 -11 12 -17 5 -13 -10 6 -13 3 -11 -10 2 -11 0 -25 -4 -31 -5 -8 -3 -13 4
-13 10 0 10 -3 2 -11 -8 -8 -9 -20 -2 -36 8 -22 7 -24 -8 -19 -17 6 -17 5 -1
-7 13 -11 15 -16 6 -25 -9 -9 -9 -12 1 -12 7 0 9 -5 5 -12 -12 -19 -12 -48 -1
-48 6 0 7 -3 4 -7 -4 -3 -1 -13 6 -21 9 -13 9 -14 0 -8 -13 7 -15 -1 -15 -54
0 -14 -5 -28 -12 -32 -8 -6 -7 -8 2 -8 7 0 10 -5 6 -12 -4 -6 -3 -8 4 -4 5 3
12 0 15 -6 7 -21 -4 -37 -21 -31 -13 4 -13 2 2 -9 14 -11 16 -17 7 -22 -9 -6
-8 -13 6 -29 10 -11 12 -17 5 -13 -10 6 -13 3 -11 -10 2 -11 0 -25 -4 -31 -5
-8 -3 -13 4 -13 10 0 10 -3 2 -11 -8 -8 -9 -20 -2 -36 8 -22 7 -24 -8 -19 -17
6 -17 5 -1 -7 13 -11 15 -16 6 -25 -9 -9 -9 -12 1 -12 9 0 10 -4 5 -12 -14
-19 -10 -53 5 -50 7 1 10 -2 6 -8 -3 -6 -11 -8 -16 -5 -5 4 -9 1 -9 -4 0 -6 4
-11 9 -11 14 0 7 -40 -9 -51 -13 -9 -13 -10 2 -6 11 4 15 0 13 -11 -1 -10 -11
-17 -24 -16 -11 0 -21 -4 -21 -10 0 -6 -5 -4 -10 4 -9 13 -10 13 -10 0 0 -13
-2 -13 -9 -1 -5 8 -17 16 -25 17 -9 1 -14 -2 -11 -6 3 -5 1 -11 -5 -15 -5 -3
-10 -3 -10 2 0 4 -11 9 -25 9 -14 1 -23 -2 -20 -6 3 -4 -9 -6 -26 -5 -17 2
-35 9 -40 16 -7 11 -9 9 -9 -6 0 -15 -2 -17 -9 -6 -6 9 -10 10 -16 2 -5 -9
-10 -9 -21 0 -11 9 -14 8 -14 -2 0 -8 -5 -6 -13 6 -11 14 -16 15 -22 5 -6 -9
-4 -11 6 -5 8 5 10 4 6 0 -10 -11 -37 -15 -37 -6 0 4 -7 8 -15 8 -8 0 -15 -5
-15 -11 0 -5 -7 -1 -15 10 -8 10 -14 15 -13 9 2 -5 -2 -10 -7 -10 -5 0 -9 5
-7 10 1 6 -4 2 -12 -8 -14 -18 -15 -18 -25 0 -10 17 -10 17 -11 -2 0 -15 -2
-17 -9 -6 -6 9 -10 10 -16 2 -5 -9 -10 -9 -21 0 -11 9 -14 8 -14 -2 0 -11 -2
-11 -10 1 -9 13 -10 13 -10 0 0 -12 -2 -12 -9 -2 -10 17 -21 17 -31 2 -5 -8
-12 -7 -24 5 -15 15 -16 15 -16 -2 0 -14 -2 -15 -9 -4 -6 9 -10 10 -16 2 -5
-9 -10 -9 -21 0 -11 9 -14 8 -14 -2 0 -8 -5 -6 -13 6 -11 14 -16 15 -22 5 -6
-9 -4 -11 6 -5 8 5 10 4 6 0 -10 -11 -37 -15 -37 -6 0 4 -7 8 -15 8 -8 0 -15
-5 -15 -11 0 -5 -7 -1 -15 10 -8 10 -14 15 -13 9 2 -5 -1 -10 -7 -10 -5 0 -9
5 -7 10 1 6 -4 2 -12 -8 -14 -18 -15 -18 -25 0 -10 17 -10 17 -11 -2 0 -15 -2
-17 -9 -6 -6 9 -10 10 -16 2 -5 -9 -10 -9 -21 0 -11 9 -14 8 -14 -2 0 -8 -5
-6 -13 6 -11 14 -16 15 -22 5 -6 -9 -4 -11 6 -5 8 5 10 4 6 0 -10 -11 -37 -15
-37 -6 0 4 -7 8 -15 8 -8 0 -15 -5 -15 -11 0 -5 -7 -1 -15 10 -8 10 -14 15
-13 9 2 -5 -2 -10 -7 -10 -5 0 -9 5 -7 10 1 6 -4 2 -12 -8 -14 -18 -15 -18
-25 0 -10 17 -10 17 -11 -2 0 -15 -2 -17 -9 -6 -6 9 -11 10 -15 2 -4 -6 -13
-8 -19 -4 -18 11 -49 14 -43 4 3 -5 -8 -7 -25 -6 -17 2 -35 9 -40 16 -7 11 -9
9 -9 -6 0 -15 -2 -17 -9 -6 -6 9 -10 10 -16 2 -5 -9 -10 -9 -21 0 -11 9 -14 8
-14 -2 0 -8 -5 -6 -13 6 -11 14 -16 15 -22 5 -6 -9 -4 -11 6 -5 8 5 10 4 6 0
-10 -11 -37 -15 -37 -6 0 4 -7 8 -15 8 -8 0 -15 -5 -15 -11 0 -5 -7 -1 -15 10
-8 10 -14 15 -13 9 2 -5 -2 -10 -7 -10 -5 0 -9 5 -7 10 1 6 -4 2 -12 -8 -14
-18 -15 -18 -25 0 -10 17 -10 17 -11 -2 0 -15 -2 -17 -9 -6 -6 9 -10 10 -16 2
-5 -9 -10 -9 -21 0 -11 9 -14 8 -14 -2 0 -8 -5 -6 -13 6 -11 14 -16 15 -22 5
-6 -9 -4 -11 6 -5 8 5 10 4 6 0 -10 -11 -37 -15 -37 -6 0 4 -7 8 -15 8 -8 0
-15 -5 -15 -11 0 -5 -7 -1 -15 10 -8 10 -14 14 -13 9 2 -6 -1 -10 -7 -10 -5 0
-9 5 -7 10 1 6 -4 2 -12 -8 -14 -18 -15 -18 -25 0 -10 17 -10 17 -11 -2 0 -15
-2 -17 -9 -6 -6 9 -10 10 -16 2 -5 -9 -10 -9 -21 0 -11 9 -14 8 -14 -2 0 -11
-2 -11 -10 1 -9 13 -10 13 -10 0 0 -12 -2 -12 -9 -2 -10 17 -21 17 -31 2 -5
-8 -12 -7 -24 5 -15 15 -16 15 -16 -2 0 -14 -2 -15 -9 -4 -6 9 -10 10 -16 2
-5 -9 -10 -9 -21 0 -11 9 -14 8 -14 -2 0 -8 -5 -6 -13 6 -11 14 -16 15 -22 5
-6 -9 -4 -11 6 -5 8 5 10 4 6 0 -10 -11 -37 -15 -37 -6 0 4 -7 8 -15 8 -8 0
-15 -5 -15 -11 0 -5 -7 -1 -15 10 -8 10 -14 15 -13 9 2 -5 -2 -10 -7 -10 -5 0
-9 5 -7 10 1 6 -4 2 -12 -8 -14 -18 -15 -18 -25 0 -10 17 -10 17 -11 -2 0 -15
-2 -17 -9 -6 -6 9 -10 10 -16 2 -5 -9 -10 -9 -21 0 -11 9 -14 8 -14 -2 0 -8
-5 -6 -13 6 -11 14 -16 15 -22 5 -6 -9 -4 -11 6 -5 8 5 10 4 6 0 -10 -11 -37
-15 -37 -6 0 4 -7 8 -15 8 -8 0 -15 -5 -15 -11 0 -5 -7 -1 -15 10 -8 10 -14
15 -13 9 2 -5 -2 -10 -7 -10 -6 0 -9 4 -7 10 1 5 -4 2 -12 -8 -14 -18 -15 -18
-25 0 -10 17 -10 17 -11 -2 -1 -12 -4 -15 -7 -7 -4 9 -8 10 -18 2 -10 -8 -15
-8 -20 0 -5 8 -10 8 -20 0 -10 -8 -15 -8 -20 1 -6 8 -10 7 -16 -2 -7 -11 -9
-9 -9 6 0 17 -2 17 -10 5 -5 -8 -10 -11 -10 -6 0 5 -6 3 -14 -3 -10 -8 -16 -9
-21 -1 -9 14 -28 13 -19 -2 5 -10 4 -10 -6 -1 -9 8 -19 9 -31 3 -12 -7 -20 -6
-25 1 -4 8 -9 7 -15 -2 -7 -11 -9 -9 -9 6 0 17 -2 17 -10 5 -5 -8 -10 -11 -10
-6 0 5 -6 3 -14 -3 -10 -8 -16 -9 -21 -1 -3 5 -11 10 -16 10 -6 0 -7 -6 -3
-12 6 -10 4 -10 -8 0 -10 8 -19 9 -22 3 -7 -10 -25 -9 -43 2 -8 5 -13 3 -14
-5 0 -10 -2 -10 -6 -1 -3 10 -10 10 -25 2 -12 -6 -18 -7 -14 -1 3 5 -1 13 -10
16 -8 3 -12 2 -9 -4 3 -6 4 -10 1 -10 -3 0 -10 9 -16 20 -8 15 -8 18 3 14 9
-3 13 4 13 20 0 14 -4 22 -8 20 -4 -3 -8 0 -8 5 0 6 6 11 13 12 9 0 9 2 0 6
-7 2 -13 9 -13 14 0 6 4 8 9 4 5 -3 13 0 17 6 4 8 3 9 -4 5 -7 -4 -12 -2 -12
4 0 6 -6 8 -12 5 -7 -4 -4 1 6 9 20 16 20 16 0 17 -18 0 -18 1 1 9 12 5 15 9
6 9 -12 1 -12 4 -3 13 9 9 7 14 -5 23 -13 10 -13 14 -3 20 9 6 11 4 5 -6 -5
-8 -4 -10 0 -6 12 10 15 38 4 31 -5 -3 -9 4 -9 15 0 12 5 21 12 21 6 0 3 7 -8
15 -14 11 -15 14 -3 9 10 -3 20 0 24 6 3 6 3 10 -2 9 -20 -3 -25 2 -13 16 8
10 9 19 3 28 -6 6 -13 21 -17 31 -5 15 -4 17 7 8 10 -9 14 -8 14 3 0 8 -4 15
-9 15 -4 0 -8 5 -8 11 0 5 6 7 13 3 6 -4 3 3 -7 15 -14 15 -15 20 -5 16 11 -4
15 1 15 19 0 14 -4 22 -8 20 -4 -3 -8 0 -8 5 0 6 6 11 13 11 7 0 8 3 2 8 -14
10 -16 72 -2 72 6 0 2 7 -9 15 -14 11 -15 14 -3 9 10 -3 20 0 24 6 3 6 3 10
-2 9 -20 -3 -25 2 -13 16 8 10 9 19 3 28 -6 6 -13 21 -17 31 -5 15 -4 17 7 8
10 -9 14 -8 14 3 0 8 -4 15 -9 15 -4 0 -8 5 -8 11 0 5 6 7 13 3 6 -4 3 3 -7
15 -14 15 -15 20 -5 16 11 -4 15 1 15 19 0 14 -4 22 -8 20 -4 -3 -8 0 -8 5 0
6 6 11 13 11 7 0 8 3 2 8 -14 10 -15 62 -1 62 6 0 5 4 -3 9 -8 5 -16 17 -17
25 -1 9 2 14 7 10 5 -3 6 -11 3 -17 -4 -7 -3 -8 1 -4 13 11 15 37 3 37 -6 0
-4 7 3 17 12 15 12 16 -1 8 -13 -8 -13 -7 -1 8 12 15 11 17 -5 18 -18 0 -18 1
0 8 19 7 19 8 1 14 -17 7 -17 8 1 28 14 16 16 22 5 28 -10 6 -10 10 -2 16 9 5
9 11 -1 23 -11 12 -11 16 0 20 10 3 8 8 -5 18 -15 12 -15 13 -2 8 10 -3 20 0
24 6 3 6 3 10 -2 9 -20 -3 -25 2 -13 16 8 10 9 19 3 28 -6 6 -13 21 -17 31 -5
15 -4 17 7 8 10 -9 14 -8 14 3 0 8 -5 15 -10 15 -6 0 -7 3 -4 7 4 3 1 13 -6
21 -8 11 -8 14 0 9 6 -4 14 -3 18 3 3 5 0 10 -7 10 -9 0 -9 3 2 10 10 6 11 10
3 10 -7 0 -13 5 -13 11 0 5 5 7 10 4 6 -3 10 -2 10 4 0 5 -5 11 -12 13 -6 2
-12 12 -14 21 -1 9 2 15 7 11 5 -3 6 -11 3 -17 -4 -7 -3 -8 1 -4 13 11 15 37
3 37 -6 0 -4 7 3 17 12 15 12 16 -1 8 -13 -8 -13 -7 -1 8 12 15 11 17 -5 18
-18 1 -18 2 -1 6 17 4 17 6 1 17 -15 11 -15 14 -2 27 14 12 14 15 -1 26 -15
12 -15 13 0 7 10 -3 20 0 25 7 4 7 3 10 -4 5 -6 -3 -13 -2 -16 3 -4 5 -2 12 4
16 13 8 13 25 -1 25 -5 0 -7 -5 -3 -12 5 -7 3 -8 -6 -3 -10 6 -9 11 5 22 11 7
14 13 8 13 -6 0 -14 7 -17 16 -6 14 -4 15 9 4 13 -11 16 -11 13 1 -2 8 -7 18
-13 22 -6 6 -5 10 3 14 10 4 9 9 -5 19 -15 12 -15 13 -2 8 10 -3 20 0 24 6 3
6 3 10 -2 9 -20 -3 -25 2 -13 16 10 12 10 18 -1 31 -10 13 -10 17 2 25 11 7
11 9 0 9 -11 0 -11 3 -1 15 6 8 8 20 4 27 -5 8 -1 8 11 -2 10 -8 16 -10 12 -3
-4 6 -3 14 3 18 5 3 10 1 10 -6 0 -8 4 -8 15 1 12 10 15 10 16 -1 0 -12 1 -12
6 0 4 11 7 11 14 0 6 -11 11 -10 27 4 10 9 22 14 27 10 4 -5 4 -1 -1 7 -15 27
-14 42 4 36 15 -5 15 -5 0 7 -10 8 -14 18 -10 22 4 5 2 5 -5 1 -6 -3 -10 -16
-8 -28 3 -11 1 -17 -3 -14 -4 4 -7 11 -7 14 0 4 -4 13 -9 21 -6 10 -5 12 2 7
15 -9 15 -1 1 27 -9 20 -9 20 4 5 18 -22 28 -23 20 -2 -3 9 0 20 8 26 10 7 9
8 -6 4 -16 -5 -21 -1 -22 14 -1 11 3 20 8 20 6 0 8 -4 5 -8 -3 -5 2 -9 10 -9
10 0 6 9 -13 26 -15 14 -31 25 -34 24 -4 -1 -4 8 -1 20 5 19 3 20 -10 9 -14
-11 -16 -10 -14 12 2 17 -1 23 -10 19 -8 -3 -11 -10 -7 -16 3 -6 1 -7 -6 -3
-9 6 -9 11 0 22 9 11 8 14 -4 14 -8 0 -18 7 -21 16 -3 8 -12 12 -18 9 -7 -4
-4 1 6 9 19 15 12 22 -17 17 -5 -1 -6 3 -2 9 3 6 11 8 16 5 5 -4 9 -1 9 4 0 6
-5 11 -11 11 -8 0 -7 6 2 17 8 9 9 14 3 10 -7 -4 -14 0 -17 8 -4 9 -1 12 7 9
8 -3 17 0 21 6 3 6 3 10 -2 9 -20 -3 -25 2 -13 16 8 10 9 19 3 28 -6 6 -13 21
-17 31 -5 15 -4 17 7 8 10 -9 14 -8 14 3 0 8 -5 15 -10 15 -6 0 -7 3 -4 7 4 3
1 13 -6 21 -8 11 -8 14 0 9 6 -4 14 -3 18 3 3 5 0 10 -7 10 -9 0 -9 3 2 10 10
6 11 10 3 10 -7 0 -13 7 -13 15 0 8 5 15 12 15 6 0 3 7 -8 15 -14 11 -15 14
-3 9 10 -3 20 0 24 6 3 6 3 10 -2 9 -20 -3 -25 2 -13 16 8 10 9 19 3 28 -6 6
-13 21 -17 31 -5 15 -4 17 7 8 10 -9 14 -8 14 3 0 8 -4 15 -9 15 -4 0 -8 5 -8
11 0 5 6 7 13 3 6 -4 3 3 -7 15 -14 15 -15 20 -5 16 11 -4 15 1 15 19 0 14 -4
22 -8 20 -4 -3 -8 0 -8 5 0 6 6 11 13 11 7 0 8 3 2 8 -14 10 -15 62 -1 62 6 0
5 4 -3 9 -8 5 -16 17 -17 25 -1 9 2 14 7 10 5 -3 6 -11 3 -17 -4 -7 -3 -8 1
-4 13 11 15 37 3 37 -6 0 -4 7 3 17 12 15 12 16 -1 8 -13 -8 -13 -7 -1 8 12
15 11 17 -5 18 -18 0 -18 1 0 8 19 7 19 8 1 14 -17 7 -17 8 1 28 14 16 16 22
5 28 -10 6 -10 10 -2 16 9 5 9 11 -1 23 -11 12 -11 16 0 20 10 3 8 8 -5 18
-15 12 -15 13 -2 8 10 -3 20 0 24 6 3 6 3 10 -2 9 -20 -3 -25 2 -13 16 8 10 9
19 3 28 -6 6 -13 21 -17 31 -5 15 -4 17 7 8 10 -9 14 -8 14 3 0 8 -5 15 -10
15 -6 0 -7 3 -4 7 4 3 1 13 -6 21 -8 11 -8 14 0 9 6 -4 14 -3 18 3 3 5 0 10
-7 10 -9 0 -9 3 2 10 10 6 11 10 3 10 -7 0 -13 5 -13 11 0 5 5 7 10 4 6 -3 10
-2 10 4 0 5 -5 11 -12 13 -6 2 -12 12 -14 21 -1 9 2 15 7 11 5 -3 6 -11 3 -17
-4 -7 -3 -8 1 -4 13 11 15 37 3 37 -6 0 -4 7 3 17 12 15 12 16 -1 8 -13 -8
-13 -7 -1 8 12 15 11 17 -5 18 -18 1 -18 2 -1 6 17 4 17 6 1 17 -15 11 -15 14
-2 27 14 12 14 15 -1 26 -15 12 -15 13 0 7 10 -3 20 0 24 6 3 6 3 10 -2 9 -20
-3 -25 2 -13 16 8 10 9 19 3 28 -6 6 -13 21 -17 31 -5 15 -4 17 7 8 10 -9 14
-8 14 3 0 8 -4 15 -9 15 -4 0 -8 5 -8 11 0 5 6 7 13 3 6 -4 3 3 -7 15 -14 15
-15 20 -5 16 11 -4 15 1 15 19 0 14 -4 22 -8 20 -4 -3 -8 0 -8 5 0 6 6 11 13
11 7 0 8 3 2 8 -12 9 -13 52 -1 71 6 9 5 12 -1 8 -5 -3 -10 1 -10 9 0 9 6 13
14 10 8 -3 11 -1 8 4 -3 6 -14 10 -23 10 -10 0 -13 3 -6 8 13 9 27 45 15 38
-5 -3 -11 1 -15 9 -3 8 -1 17 5 20 5 4 7 10 4 15 -3 5 -1 11 5 15 6 4 8 11 5
16 -3 5 1 6 10 3 8 -4 22 -1 30 6 18 15 20 -1 3 -20 -7 -7 0 -4 16 8 37 28 49
28 42 0 -3 -13 -3 -17 0 -10 5 10 9 10 22 0 13 -11 14 -10 4 8 -11 20 -9 21
21 17 18 -2 39 -5 48 -6 9 -1 15 -7 12 -13 -2 -7 0 -15 6 -19 7 -4 8 1 4 12
-6 16 -5 17 13 3 15 -11 16 -11 7 0 -7 8 -13 17 -13 21 0 12 29 4 43 -11 10
-12 9 -12 -8 0 -19 13 -19 13 -3 -5 22 -24 37 -11 19 17 -10 16 -10 19 1 12 7
-5 22 -10 33 -11 11 -2 30 -4 43 -6 13 -2 28 -10 33 -18 8 -11 9 -9 5 7 -5 14
-2 21 9 21 10 0 14 -7 10 -21 -3 -12 -2 -15 1 -8 8 17 24 15 41 -5 13 -16 13
-16 4 4 -6 12 -16 24 -23 26 -10 4 -10 6 0 6 6 1 21 -8 32 -19 11 -11 20 -15
20 -8 0 9 3 9 12 0 18 -18 31 -14 25 7 -4 15 1 18 26 16 17 -2 37 -11 44 -21
7 -10 13 -12 13 -6 0 7 9 12 21 12 11 0 18 3 15 8 -2 4 13 7 34 7 21 0 36 -3
33 -7 -2 -5 -9 -5 -15 -2 -7 4 -8 2 -4 -5 4 -6 12 -9 17 -5 6 3 17 -2 25 -12
13 -18 14 -18 8 -1 -8 21 14 20 34 -3 11 -13 11 -11 2 8 -6 12 -15 20 -21 17
-5 -4 -9 -1 -9 4 0 17 18 13 40 -9 11 -11 20 -15 20 -8 0 9 3 9 12 0 18 -18
31 -14 25 7 -4 15 1 18 26 16 17 -2 37 -11 44 -21 7 -10 13 -12 13 -6 0 7 9
12 21 12 11 0 18 3 15 8 -2 4 13 7 34 7 21 0 36 -3 33 -7 -2 -5 -9 -5 -15 -2
-7 4 -8 2 -4 -5 4 -6 12 -9 17 -5 6 3 17 -2 25 -12 14 -18 14 -17 4 5 -8 16
-9 21 -1 17 6 -4 11 -3 11 3 0 6 16 8 38 5 20 -3 44 -6 53 -7 9 -1 15 -7 12
-13 -2 -7 0 -15 6 -19 7 -4 8 1 4 12 -6 16 -5 17 13 3 15 -11 16 -11 7 0 -7 8
-13 17 -13 21 0 12 29 4 43 -11 10 -12 9 -12 -8 0 -19 13 -19 13 -3 -5 22 -24
37 -11 19 17 -10 16 -10 19 1 12 7 -5 22 -10 33 -11 11 -2 30 -4 43 -6 13 -2
28 -10 33 -18 8 -11 9 -9 5 7 -5 14 -2 21 9 21 10 0 14 -7 10 -21 -3 -12 -2
-15 1 -8 3 6 10 12 15 12 6 0 8 -4 5 -8 -3 -5 1 -9 8 -9 7 0 13 6 13 13 0 7
-4 11 -8 8 -4 -2 -10 0 -14 5 -3 6 5 8 20 5 15 -3 25 0 25 7 0 7 3 9 6 6 4 -4
2 -13 -5 -20 -9 -12 -6 -13 15 -9 16 3 25 1 21 -5 -3 -5 0 -10 8 -10 11 0 12
4 4 14 -11 12 -5 17 15 14 5 -1 13 4 17 11 6 9 9 9 9 1 0 -6 -4 -15 -10 -18
-13 -8 -13 -25 1 -25 5 0 7 5 3 11 -5 8 3 10 24 7 27 -4 30 -2 19 10 -10 13
-9 14 11 3 13 -7 20 -17 15 -24 -4 -7 2 -5 12 3 17 14 18 13 12 -5 -7 -19 -6
-19 7 -2 11 14 15 15 20 5 3 -7 5 -3 2 8 -3 18 1 21 27 19 17 -2 37 -11 44
-21 7 -10 13 -12 13 -6 0 18 31 14 46 -5 13 -17 14 -17 7 2 -6 18 -5 19 13 5
18 -14 18 -14 5 2 -7 10 -17 16 -21 13 -5 -3 -11 -2 -13 3 -3 4 12 7 33 7 21
0 36 -3 33 -7 -2 -5 -10 -5 -16 -1 -7 4 -6 0 2 -10 15 -18 26 -23 16 -7 -3 6
1 10 9 10 9 0 15 3 15 8 -2 14 1 32 6 32 3 0 4 -8 2 -17z m-1259 -18 c-3 -3
-9 2 -12 12 -6 14 -5 15 5 6 7 -7 10 -15 7 -18z m320 0 c-3 -3 -9 2 -12 12 -6
14 -5 15 5 6 7 -7 10 -15 7 -18z m800 0 c-3 -3 -9 2 -12 12 -6 14 -5 15 5 6 7
-7 10 -15 7 -18z m-1944 -16 c-10 -16 -23 -9 -21 10 1 15 4 17 14 9 7 -5 10
-14 7 -19z m730 15 c5 -13 4 -14 -7 -6 -8 7 -18 8 -22 4 -5 -4 -5 -1 -1 6 10
17 23 15 30 -4z m320 0 c5 -13 4 -14 -7 -6 -8 7 -18 8 -22 4 -5 -4 -5 -1 -1 6
10 17 23 15 30 -4z m796 8 c0 -5 -7 -9 -15 -9 -8 0 -12 4 -9 9 3 4 9 8 15 8 5
0 9 -4 9 -8z m-1855 -52 c-3 -5 -12 -10 -18 -10 -7 0 -6 4 3 10 19 12 23 12
15 0z m2230 -90 c-3 -5 -12 -10 -18 -10 -7 0 -6 4 3 10 19 12 23 12 15 0z m0
-320 c-3 -5 -12 -10 -18 -10 -7 0 -6 4 3 10 19 12 23 12 15 0z m0 -320 c-3 -5
-12 -10 -18 -10 -7 0 -6 4 3 10 19 12 23 12 15 0z m906 -183 c-10 -9 -11 -8
-5 6 3 10 9 15 12 12 3 -3 0 -11 -7 -18z m229 -55 c0 -13 -12 -22 -22 -16 -10
6 -1 24 13 24 5 0 9 -4 9 -8z m-1 -285 c0 -9 -2 -8 -6 1 -2 6 -10 9 -15 6 -7
-4 -8 -2 -4 5 9 13 26 5 25 -12z m-3362 -147 c-1 -11 -5 -20 -9 -20 -3 0 -6 9
-5 20 1 11 5 20 9 20 3 0 6 -9 5 -20z m-2 -40 c-3 -5 -12 -10 -18 -10 -7 0 -6
4 3 10 19 12 23 12 15 0z m3360 -20 c-3 -5 -12 -10 -18 -10 -7 0 -6 4 3 10 19
12 23 12 15 0z m5 -24 c0 -2 -7 -7 -16 -10 -8 -3 -12 -2 -9 4 6 10 25 14 25 6z
m-424 -18 c3 -4 -1 -5 -10 -4 -8 1 -18 5 -22 8 -3 4 1 5 10 4 8 -1 18 -5 22
-8z m-112 -14 c3 -8 2 -12 -4 -9 -6 3 -10 10 -10 16 0 14 7 11 14 -7z m161
-14 c3 -5 1 -10 -4 -10 -6 0 -11 5 -11 10 0 6 2 10 4 10 3 0 8 -4 11 -10z
m-359 -39 c0 -15 -3 -17 -13 -9 -7 6 -10 14 -7 19 9 15 20 10 20 -10z m725
-118 c13 -16 12 -17 -3 -4 -10 7 -18 15 -18 17 0 8 8 3 21 -13z m20 -26 c-10
-9 -11 -8 -5 6 3 10 9 15 12 12 3 -3 0 -11 -7 -18z m-3385 -9 c5 -7 3 -8 -6
-3 -10 6 -12 4 -7 -8 4 -11 2 -14 -9 -10 -11 4 -12 9 -3 19 14 17 16 17 25 2z
m2870 -15 c-4 -9 -1 -20 6 -25 11 -6 10 -8 0 -8 -8 0 -10 -5 -6 -12 6 -10 3
-9 -9 0 -13 11 -14 18 -5 38 13 27 24 33 14 7z m591 -115 c-3 -8 -6 -5 -6 6
-1 11 2 17 5 13 3 -3 4 -12 1 -19z m287 -11 c4 4 4 0 1 -9 -4 -9 -2 -19 4 -23
6 -3 11 -11 11 -18 0 -6 -6 -3 -13 8 -11 14 -16 15 -22 5 -5 -9 -4 -11 3 -6
15 9 16 -16 1 -31 -8 -8 -4 -15 12 -27 13 -9 18 -16 12 -16 -14 0 -13 -39 1
-60 6 -8 7 -12 2 -8 -10 8 -36 -14 -29 -25 2 -4 10 -4 16 0 18 11 38 12 31 2
-3 -5 -9 -7 -14 -4 -14 9 -43 -54 -32 -68 5 -7 8 -22 7 -35 -1 -13 3 -26 8
-29 6 -4 7 -1 2 8 -6 11 -5 12 5 2 17 -16 11 -22 -26 -27 -16 -2 -36 -5 -44
-7 -8 -2 -14 2 -12 9 1 8 -2 11 -8 7 -6 -3 -8 -11 -5 -16 4 -5 1 -9 -4 -9 -6
0 -11 5 -11 10 0 7 -6 7 -20 0 -14 -7 -20 -7 -20 0 0 5 -9 10 -21 10 -13 0
-18 -4 -13 -12 4 -7 3 -8 -4 -4 -7 4 -17 16 -23 28 -6 12 -7 18 -1 14 12 -7
26 20 31 64 1 13 2 13 11 0 5 -8 10 -10 10 -4 0 5 -6 16 -12 23 -9 9 -9 12 -1
7 6 -3 19 1 27 10 9 8 16 12 16 7 0 -5 -5 -14 -11 -20 -7 -7 2 -10 33 -9 43 1
44 1 43 33 -1 18 2 30 6 27 5 -3 10 3 10 13 1 17 2 17 6 0 2 -9 9 -15 14 -11
5 3 7 10 3 15 -3 5 -1 16 5 23 9 10 7 15 -6 21 -29 13 -44 14 -37 3 4 -6 -5
-2 -20 7 -20 14 -26 14 -26 4 -1 -9 -6 -7 -15 5 -8 11 -15 14 -15 8 0 -7 -12
-12 -26 -12 -17 0 -23 4 -18 13 6 9 5 9 -7 1 -15 -12 -110 -24 -103 -13 2 4
-3 9 -11 12 -9 4 -12 1 -8 -9 4 -10 0 -12 -11 -8 -9 3 -23 0 -32 -7 -12 -10
-15 -10 -12 2 2 8 -3 13 -10 11 -10 -2 -10 2 -2 18 9 16 8 20 -7 20 -15 0 -15
1 2 13 14 11 15 16 5 22 -9 5 -11 4 -6 -3 5 -8 1 -10 -10 -5 -15 5 -15 7 0 15
9 5 20 7 25 4 4 -3 7 5 6 17 -2 18 2 22 26 21 16 0 32 -4 37 -9 4 -5 1 -5 -7
0 -10 6 -12 4 -7 -4 6 -9 13 -8 28 6 20 18 112 28 102 11 -5 -7 10 -12 29 -9
4 0 7 -3 7 -7 0 -4 10 -8 23 -9 l22 -1 -22 10 c-13 6 -23 15 -23 21 0 5 6 5
13 -2 10 -8 17 -7 27 2 8 8 11 8 7 1 -9 -16 24 -28 34 -12 4 6 5 17 2 22 -4 5
7 0 24 -12 17 -12 33 -18 37 -15z m-3784 13 c0 -5 -2 -10 -4 -10 -3 0 -8 5
-11 10 -3 6 -1 10 4 10 6 0 11 -4 11 -10z m3799 -94 c10 -12 8 -13 -8 -9 -12
3 -18 9 -15 14 7 12 10 11 23 -5z m-3754 -56 c-3 -5 -12 -10 -18 -10 -7 0 -6
4 3 10 19 12 23 12 15 0z m2649 2 c3 -5 -1 -9 -9 -9 -8 0 -12 4 -9 9 3 4 7 8
9 8 2 0 6 -4 9 -8z m1061 -1 c3 -5 1 -12 -5 -16 -5 -3 -10 1 -10 9 0 18 6 21
15 7z m-3355 -5 c0 -2 -7 -9 -15 -16 -13 -11 -14 -10 -9 4 5 14 24 23 24 12z
m3415 -5 c3 -5 2 -12 -3 -15 -5 -3 -9 1 -9 9 0 17 3 19 12 6z m-106 -94 c0 -8
-2 -8 -6 1 -4 10 -8 10 -21 0 -15 -12 -16 -11 -3 4 14 19 32 15 30 -5z m-109
-7 c0 -5 -5 -10 -11 -10 -5 0 -7 5 -4 10 3 6 8 10 11 10 2 0 4 -4 4 -10z m187
-14 c-3 -8 -1 -17 6 -20 9 -3 9 -5 0 -5 -15 -1 -26 16 -18 29 9 15 18 12 12
-4z m-187 -41 c0 -12 -19 -12 -23 0 -4 9 -1 12 9 8 7 -3 14 -7 14 -8z m-826
-4 c-8 -8 -34 -10 -38 -2 -3 4 6 7 19 7 14 0 22 -2 19 -5z m1041 -80 c3 -5 2
-12 -3 -15 -5 -3 -9 1 -9 9 0 17 3 19 12 6z m-406 -444 c0 -9 -2 -8 -6 1 -2 6
-10 9 -15 6 -7 -4 -8 -2 -4 5 9 13 26 5 25 -12z m-4 -108 c11 -16 1 -19 -13
-3 -7 8 -8 14 -3 14 5 0 13 -5 16 -11z m0 -99 c-3 -5 -12 -10 -18 -10 -7 0 -6
4 3 10 19 12 23 12 15 0z m5 -24 c0 -2 -7 -7 -16 -10 -8 -3 -12 -2 -9 4 6 10
25 14 25 6z m-1 -249 c0 -9 -2 -8 -6 1 -2 6 -10 9 -15 6 -7 -4 -8 -2 -4 5 9
13 26 5 25 -12z m0 -320 c0 -9 -2 -8 -6 1 -2 6 -10 9 -15 6 -7 -4 -8 -2 -4 5
9 13 26 5 25 -12z m-4 -207 c-3 -5 -12 -10 -18 -10 -7 0 -6 4 3 10 19 12 23
12 15 0z m5 -24 c0 -2 -7 -7 -16 -10 -8 -3 -12 -2 -9 4 6 10 25 14 25 6z m-9
-249 c-13 -13 -26 -3 -16 12 3 6 11 8 17 5 6 -4 6 -10 -1 -17z m3 -72 c-4 -8
-1 -15 6 -15 9 0 10 -3 1 -13 -6 -8 -7 -18 -3 -23 4 -4 -1 -2 -10 5 -20 15
-24 26 -6 15 8 -5 9 -2 5 10 -4 10 -5 22 -1 27 9 14 14 10 8 -6z"/>
<path d="M3483 6973 c-15 -5 -17 -23 -4 -23 5 0 11 7 15 15 3 8 4 15 3 14 -1
0 -8 -3 -14 -6z"/>
<path d="M3551 6964 c6 -7 16 -11 21 -8 11 7 3 17 -18 20 -12 2 -13 -1 -3 -12z"/>
<path d="M3706 6968 c3 -5 8 -7 12 -4 3 3 11 -2 19 -12 13 -16 14 -16 5 2 -5
11 -17 21 -26 22 -9 1 -13 -2 -10 -8z"/>
<path d="M3946 6968 c3 -5 8 -7 12 -4 3 3 11 -2 19 -12 13 -16 14 -16 5 2 -5
11 -17 21 -26 22 -9 1 -13 -2 -10 -8z"/>
<path d="M4044 6958 c-10 -13 -12 -18 -4 -12 8 6 23 10 33 9 15 -3 16 -1 6 11
-14 18 -12 18 -35 -8z"/>
<path d="M4266 6968 c3 -5 8 -7 12 -4 3 3 11 -2 19 -12 13 -16 14 -16 5 2 -5
11 -17 21 -26 22 -9 1 -13 -2 -10 -8z"/>
<path d="M4364 6958 c-10 -13 -12 -18 -4 -12 8 6 23 10 33 9 15 -3 16 -1 6 11
-14 18 -12 18 -35 -8z"/>
<path d="M4476 6971 c-3 -5 1 -11 9 -14 9 -4 12 -1 8 9 -6 16 -10 17 -17 5z"/>
<path d="M4511 6964 c6 -7 16 -11 21 -8 11 7 3 17 -18 20 -12 2 -13 -1 -3 -12z"/>
<path d="M4666 6968 c3 -5 8 -7 12 -4 3 3 11 -2 19 -12 13 -16 14 -16 5 2 -5
11 -17 21 -26 22 -9 1 -13 -2 -10 -8z"/>
<path d="M5068 6956 c5 -18 7 -19 10 -3 3 15 6 16 20 6 14 -11 15 -11 5 1 -21
23 -41 21 -35 -4z"/>
<path d="M5291 6964 c0 -11 3 -14 6 -6 3 7 2 16 -1 19 -3 4 -6 -2 -5 -13z"/>
<path d="M3405 6950 c-3 -6 1 -7 9 -4 18 7 21 14 7 14 -6 0 -13 -4 -16 -10z"/>
<path d="M5373 6933 c4 -3 -1 -12 -11 -20 -15 -13 -15 -13 6 -3 19 9 23 30 5
30 -4 0 -3 -3 0 -7z"/>
<path d="M3395 6920 c-3 -5 -1 -10 4 -10 6 0 11 5 11 10 0 6 -2 10 -4 10 -3 0
-8 -4 -11 -10z"/>
<path d="M5355 6880 c-3 -5 -1 -10 4 -10 6 0 11 5 11 10 0 6 -2 10 -4 10 -3 0
-8 -4 -11 -10z"/>
<path d="M5364 6624 c-18 -14 -18 -15 4 -4 12 6 22 13 22 15 0 8 -5 6 -26 -11z"/>
<path d="M5364 6565 c-10 -8 -14 -15 -8 -15 6 0 17 7 24 15 16 19 9 19 -16 0z"/>
<path d="M5364 6304 c-18 -14 -18 -15 4 -4 12 6 22 13 22 15 0 8 -5 6 -26 -11z"/>
<path d="M5364 6245 c-10 -8 -14 -15 -8 -15 6 0 17 7 24 15 16 19 9 19 -16 0z"/>
<path d="M5362 6125 c-7 -8 -9 -15 -4 -15 5 0 15 7 22 15 16 19 -1 19 -18 0z"/>
<path d="M5537 5446 c5 -15 3 -17 -8 -10 -20 12 -40 14 -33 3 3 -5 -3 -9 -13
-10 -15 0 -14 -2 5 -11 12 -6 22 -15 22 -20 0 -5 -6 -6 -12 -1 -18 10 -58 12
-52 1 3 -4 10 -6 15 -3 5 4 9 1 9 -5 0 -6 5 -8 13 -4 8 5 8 2 -2 -9 -11 -14
-11 -20 0 -34 13 -15 12 -15 -8 -3 -18 12 -20 17 -10 30 11 13 10 13 -6 1 -11
-9 -14 -18 -8 -24 5 -5 7 -16 4 -23 -3 -8 0 -14 7 -14 6 0 8 5 4 12 -4 7 -3 8
5 4 6 -4 9 -12 5 -17 -3 -5 0 -17 8 -26 9 -12 9 -15 1 -9 -7 4 -13 3 -13 -1 0
-5 6 -15 13 -23 10 -12 9 -12 -5 -1 -11 8 -18 9 -18 3 0 -6 8 -16 18 -21 24
-14 6 -14 -21 1 -18 9 -20 9 -11 -3 5 -8 9 -24 8 -36 0 -13 3 -23 7 -23 5 0 9
-7 9 -16 0 -9 5 -12 13 -8 8 6 8 3 -1 -9 -8 -9 -11 -21 -7 -26 3 -7 0 -8 -10
-5 -13 5 -13 9 -3 23 12 14 11 15 -5 2 -12 -9 -14 -17 -7 -26 5 -6 6 -16 2
-20 -4 -5 -1 -4 7 0 11 6 13 4 7 -11 -4 -10 -10 -30 -12 -44 -4 -20 -3 -23 7
-12 7 6 17 12 23 12 5 0 0 -8 -12 -18 -19 -17 -19 -19 -4 -30 15 -11 14 -12
-8 -7 -14 4 -20 3 -14 -2 6 -4 10 -16 8 -25 -1 -10 2 -18 7 -18 5 0 9 -7 9
-16 0 -9 5 -12 13 -8 8 6 8 3 -1 -9 -8 -9 -11 -21 -7 -26 3 -7 0 -8 -10 -5
-13 5 -13 9 -3 23 12 14 11 15 -5 2 -10 -8 -14 -18 -9 -25 4 -6 7 -21 6 -33 0
-13 3 -23 9 -23 5 0 3 -8 -4 -17 -10 -11 -10 -14 -1 -9 8 5 12 0 12 -16 0 -19
-2 -20 -11 -8 -9 13 -10 12 -5 -2 3 -11 0 -18 -7 -18 -8 0 -9 -2 -1 -8 6 -4
10 -15 8 -24 -1 -10 2 -18 7 -18 5 0 9 -7 9 -16 0 -9 5 -12 13 -8 8 6 8 3 -1
-9 -8 -9 -11 -21 -7 -26 3 -7 0 -8 -10 -5 -13 5 -13 9 -3 23 12 14 11 15 -5 2
-16 -12 -16 -16 -2 -31 8 -9 15 -21 15 -26 0 -5 -5 -2 -10 6 -7 12 -9 10 -7
-8 1 -13 7 -21 16 -19 7 1 16 -5 18 -13 3 -10 2 -11 -4 -4 -6 9 -11 8 -21 -2
-11 -12 -9 -13 10 -10 13 3 27 5 31 5 5 1 5 6 1 13 -5 7 -3 8 5 4 9 -6 9 -12
-3 -25 -9 -10 -16 -22 -16 -27 0 -5 5 -1 11 9 5 9 15 17 20 17 6 0 7 -4 4 -10
-3 -6 1 -7 10 -3 13 5 14 7 3 14 -9 6 -4 8 14 7 23 -2 27 -6 22 -23 -4 -15 -3
-16 4 -6 5 7 15 10 21 7 6 -4 15 3 20 16 8 19 10 20 10 4 1 -11 6 -16 15 -13
7 3 19 0 25 -6 9 -9 11 -8 6 5 -5 14 -2 16 15 13 12 -2 29 -10 38 -17 14 -12
14 -10 2 12 -13 24 -12 24 5 10 17 -14 18 -13 12 2 -3 10 -1 20 5 24 6 4 8 3
5 -3 -3 -5 0 -10 7 -10 8 0 12 6 9 14 -3 7 -8 13 -12 13 -12 0 -10 33 3 49 8
11 8 13 -1 8 -6 -4 -15 -2 -19 4 -5 8 -3 9 6 4 10 -6 12 -4 7 8 -8 21 2 22 17
1 10 -13 12 -13 12 5 0 11 -3 18 -6 16 -3 -2 -12 0 -20 5 -11 7 -11 11 -1 24
8 9 9 16 4 16 -6 0 -9 12 -9 28 1 15 -2 35 -7 46 -7 13 -6 16 3 11 9 -5 10 -1
5 15 -5 15 -2 25 6 31 10 6 11 9 2 9 -7 0 -13 5 -13 11 0 5 6 7 13 3 6 -4 9
-4 5 1 -4 4 -3 14 4 22 6 7 8 16 4 20 -3 3 -6 1 -6 -6 0 -7 -5 -9 -12 -5 -7 5
-8 3 -3 -6 5 -9 4 -11 -4 -6 -9 6 -9 11 -1 21 6 7 7 15 3 17 -4 3 -2 3 5 2 6
-2 12 1 12 6 0 6 -6 10 -12 10 -9 0 -8 4 2 10 13 9 13 10 0 10 -9 1 -5 5 8 10
19 8 21 13 12 30 -6 11 -13 20 -16 20 -2 0 0 -9 6 -20 8 -16 8 -20 -4 -20 -10
0 -13 6 -10 15 4 9 0 15 -7 15 -8 1 -3 8 11 16 24 15 24 15 2 10 -18 -3 -21
-2 -13 8 6 7 8 16 4 19 -3 4 -1 7 5 7 7 0 12 -4 12 -10 0 -5 6 -10 13 -10 6 1
2 9 -9 19 -21 17 -22 18 -3 30 20 12 17 32 -4 30 -9 0 -8 -2 1 -6 14 -5 6 -23
-10 -23 -6 0 -8 3 -5 7 4 3 1 13 -6 21 -6 9 -7 13 -2 10 6 -3 17 1 24 10 13
14 12 15 -8 9 -17 -4 -20 -3 -12 7 6 7 8 16 4 19 -3 4 -1 7 5 7 7 0 12 -4 12
-10 0 -5 6 -10 13 -10 6 1 1 10 -12 20 -21 18 -17 25 11 21 13 -1 1 33 -13 37
-11 3 -11 2 1 -7 12 -8 12 -11 -3 -17 -10 -3 -21 -4 -24 0 -4 3 -2 6 4 6 6 0
9 17 7 39 -2 34 0 39 14 35 16 -5 16 -5 0 5 -12 8 -16 22 -14 47 1 19 -1 37
-6 40 -5 3 -3 13 4 22 10 14 10 15 -2 5 -16 -15 -34 -17 -26 -5 3 5 -7 8 -21
7 -15 0 -28 -6 -31 -13 -5 -15 14 -16 23 -2 4 6 11 8 16 4 20 -12 -3 -21 -47
-19 -32 1 -51 8 -60 20 -8 10 -14 13 -14 6 0 -16 -32 -10 -48 9 -10 13 -11 12
-5 -4z m15 -21 c10 2 20 0 23 -4 2 -4 -8 -7 -23 -5 -15 1 -33 2 -40 3 -7 1
-10 6 -7 11 4 7 11 7 18 2 7 -5 20 -8 29 -7z m52 -11 c3 -8 2 -12 -4 -9 -6 3
-10 10 -10 16 0 14 7 11 14 -7z m141 -3 c3 -5 2 -12 -3 -15 -5 -3 -9 1 -9 9 0
17 3 19 12 6z m-263 -215 c7 4 8 2 4 -5 -9 -13 -26 -5 -25 12 0 9 2 8 6 -1 2
-6 10 -9 15 -6z m8 -140 c0 -2 -7 -7 -16 -10 -8 -3 -12 -2 -9 4 6 10 25 14 25
6z m0 -102 c0 -8 -19 -13 -24 -6 -3 5 1 9 9 9 8 0 15 -2 15 -3z m-5 -133 c-6
-5 -25 10 -25 20 0 5 6 4 14 -3 8 -7 12 -15 11 -17z m0 -81 c-3 -5 -12 -10
-18 -10 -7 0 -6 4 3 10 19 12 23 12 15 0z m5 -26 c0 -8 -19 -13 -24 -6 -3 5 1
9 9 9 8 0 15 -2 15 -3z m120 -174 c0 -5 -2 -10 -4 -10 -3 0 -8 5 -11 10 -3 6
-1 10 4 10 6 0 11 -4 11 -10z"/>
<path d="M5618 5446 c12 -23 39 -30 39 -10 0 10 -4 11 -10 5 -7 -7 -15 -5 -24
7 -13 16 -14 15 -5 -2z"/>
<path d="M5926 5445 c-11 -8 -14 -15 -8 -15 20 0 26 4 28 18 3 15 3 15 -20 -3z"/>
<path d="M6025 5440 c-3 -5 -5 -10 -3 -11 33 -8 38 -7 27 7 -14 17 -16 17 -24
4z"/>
<path d="M5453 5293 c4 -3 1 -13 -6 -22 -11 -14 -10 -14 5 -2 16 12 16 31 1
31 -4 0 -3 -3 0 -7z"/>
<path d="M3845 5261 c-14 -13 -67 -17 -85 -6 -13 8 -13 6 -2 -8 17 -20 6 -40
-19 -34 -15 4 -17 2 -9 -13 8 -16 7 -18 -10 -15 -11 2 -23 -1 -26 -7 -5 -7 -2
-8 7 -4 8 4 5 1 -5 -8 -10 -8 -24 -12 -30 -9 -6 4 -5 -1 3 -10 7 -9 10 -17 5
-18 -24 -2 -47 -8 -52 -15 -4 -4 1 -4 11 -1 22 8 22 2 -1 -21 -14 -14 -22 -16
-28 -8 -5 6 -4 2 3 -10 9 -16 9 -24 0 -33 -13 -13 -19 -43 -6 -35 16 10 9 -8
-8 -22 -15 -12 -15 -13 -2 -8 12 4 17 -1 17 -20 0 -16 -5 -23 -12 -19 -6 4 -5
-1 3 -10 9 -11 10 -17 2 -17 -6 0 -11 -5 -11 -11 0 -5 5 -7 10 -4 6 3 10 1 10
-4 0 -6 -6 -11 -12 -11 -9 0 -8 -4 2 -10 13 -9 13 -10 0 -11 -10 0 -8 -3 5 -9
11 -5 15 -9 8 -9 -7 -1 -10 -8 -6 -18 4 -10 2 -14 -4 -10 -5 3 -10 0 -10 -8 0
-8 5 -12 11 -9 6 3 2 -2 -9 -12 -15 -13 -16 -15 -3 -11 9 3 19 0 22 -9 3 -8 2
-12 -3 -9 -5 3 -12 1 -16 -5 -3 -5 -1 -10 6 -10 8 0 8 -4 -1 -15 -10 -12 -9
-15 8 -15 28 0 45 -23 29 -40 -9 -10 -9 -11 1 -6 6 4 12 2 12 -4 0 -7 6 -10
14 -7 18 7 52 -28 36 -38 -17 -11 -2 -24 23 -18 12 3 19 2 15 -2 -4 -4 0 -14
10 -22 11 -9 11 -12 2 -7 -11 5 -12 4 -5 -4 6 -6 20 -13 33 -15 12 -2 29 -12
38 -23 14 -18 15 -18 4 4 -13 26 -3 29 17 5 8 -10 12 -13 9 -7 -3 7 2 18 11
25 9 8 14 9 11 4 -4 -6 -3 -17 3 -25 7 -12 9 -11 10 5 0 11 3 14 6 8 2 -7 9
-13 14 -13 6 0 7 5 4 10 -8 13 18 8 27 -5 5 -6 8 -5 8 3 0 6 4 12 10 12 5 0 6
-8 3 -17 -5 -13 -1 -12 17 5 13 12 21 25 17 28 -3 4 -2 15 3 25 8 13 6 20 -7
27 -14 9 -14 10 5 16 12 4 22 12 22 18 0 5 -7 8 -15 4 -8 -3 -15 -1 -15 4 0 6
7 10 15 10 8 0 15 4 15 9 0 6 -9 8 -21 6 -17 -4 -19 -2 -9 10 15 18 -1 20 -18
3 -9 -9 -12 -9 -12 0 0 7 -5 12 -11 12 -5 0 -7 -6 -3 -12 4 -7 -2 -4 -14 6
-18 16 -20 22 -9 34 7 10 8 13 1 9 -7 -4 -15 0 -18 9 -4 10 -2 13 6 8 8 -5 9
-2 5 10 -5 13 -3 17 6 13 8 -3 14 1 14 9 0 8 -6 13 -13 10 -8 -3 -16 0 -20 6
-5 7 -2 8 6 3 10 -6 12 -3 8 13 -6 20 2 27 25 23 5 -1 5 3 2 9 -4 6 -13 9 -21
6 -7 -3 -16 0 -20 6 -4 6 -3 8 2 5 6 -3 16 -2 24 4 12 7 9 9 -10 9 -19 0 -22
2 -10 9 8 6 18 7 24 4 5 -3 6 -1 2 6 -4 6 -13 8 -19 5 -9 -5 -8 -3 0 6 9 9 9
17 2 26 -7 8 -6 14 2 20 8 5 9 3 4 -6 -5 -9 -4 -11 4 -6 6 4 9 12 5 17 -3 5
-9 7 -14 4 -5 -3 -11 -1 -15 5 -3 6 4 10 17 10 l23 1 -25 14 c-14 8 -20 14
-13 15 7 0 10 7 7 15 -4 9 1 18 11 21 13 6 14 9 3 16 -9 6 -6 7 9 3 19 -5 22
-3 17 12 -5 15 -4 15 5 3 7 -11 5 -20 -7 -34 -16 -18 -16 -18 6 -5 14 9 21 21
18 32 -2 9 0 15 5 11 5 -3 9 0 9 5 0 6 5 11 11 11 8 0 7 -5 -1 -15 -19 -22 -8
-25 13 -3 9 10 13 18 8 18 -5 0 -8 11 -5 25 2 14 0 25 -6 25 -5 0 -10 5 -10
10 0 6 7 10 16 8 10 -2 18 3 20 10 1 7 0 8 -2 3 -3 -6 -12 -7 -20 -4 -13 5
-13 7 -2 14 10 7 11 9 0 9 -7 0 -10 5 -7 10 3 6 1 11 -4 11 -6 1 -16 2 -22 3
-7 0 -15 10 -20 21 l-8 20 -1 -20 c-1 -12 -4 -15 -7 -7 -4 10 -8 10 -21 0 -9
-8 -13 -8 -9 -2 4 7 0 14 -8 17 -9 4 -12 1 -9 -8 4 -10 0 -12 -15 -8 -11 3
-18 9 -15 14 7 12 1 12 -11 0z m147 -118 c-6 -2 -9 -10 -6 -15 4 -7 2 -8 -5
-4 -13 9 -5 26 12 25 9 0 8 -2 -1 -6z"/>
<path d="M4070 5254 c-14 -7 -20 -14 -15 -15 6 0 1 -4 -10 -8 -14 -6 -22 -4
-27 8 -6 13 -7 12 -5 -4 1 -11 9 -20 16 -20 16 0 24 -32 10 -41 -16 -9 -10
-37 6 -30 8 3 15 1 15 -4 0 -10 -15 -14 -35 -10 -5 1 0 -9 11 -22 12 -13 20
-30 17 -38 -2 -8 3 -4 12 10 15 23 15 23 10 3 -5 -19 -3 -22 11 -16 12 4 15 3
10 -5 -4 -7 -2 -12 6 -12 9 0 9 -3 -2 -10 -13 -9 -13 -10 0 -11 8 -1 19 -1 23
0 5 1 5 -3 2 -9 -4 -6 -13 -9 -21 -6 -11 4 -12 2 -1 -14 6 -11 16 -20 22 -20
7 0 7 -3 0 -8 -13 -9 -37 -62 -28 -62 3 0 12 8 20 18 13 15 13 15 3 -6 -6 -12
-8 -28 -4 -34 4 -6 3 -8 -3 -5 -6 4 -14 0 -17 -9 -5 -12 -2 -15 9 -10 9 3 14
2 10 -3 -3 -5 1 -12 7 -15 7 -3 4 -4 -6 -3 -13 1 -20 -5 -21 -20 -1 -12 1 -21
4 -19 3 2 13 -3 21 -12 13 -14 12 -15 -3 -9 -9 3 -19 2 -22 -3 -4 -6 1 -10 9
-10 10 0 13 -6 9 -17 -5 -12 -3 -14 8 -8 11 7 12 6 2 -7 -7 -8 -9 -19 -5 -23
4 -5 1 -5 -6 -1 -7 4 -10 11 -7 16 3 5 1 11 -4 15 -6 3 -8 -5 -5 -20 3 -20 1
-23 -12 -18 -13 5 -15 3 -9 -8 7 -11 5 -11 -10 1 -11 9 -16 10 -11 3 5 -9 1
-13 -11 -13 -15 0 -16 -2 -3 -10 12 -8 12 -10 -5 -10 -18 -1 -17 -2 5 -16 l25
-15 -24 5 -23 5 21 -20 c23 -21 28 -35 9 -23 -8 5 -9 2 -5 -9 3 -9 2 -19 -3
-22 -6 -4 -10 -12 -10 -18 0 -7 4 -6 10 3 7 11 10 11 10 2 0 -7 5 -10 12 -6 6
4 8 3 5 -2 -3 -6 -2 -16 4 -24 6 -11 9 -11 9 -2 0 9 5 10 19 2 14 -7 22 -7 27
2 4 6 3 8 -4 4 -6 -3 -13 -3 -16 2 -3 5 13 8 35 8 27 0 38 -4 35 -13 -3 -7 1
-10 9 -6 8 3 12 9 9 14 -3 5 0 9 5 9 6 0 11 -5 11 -12 0 -6 3 -8 7 -5 3 4 13
1 22 -5 9 -7 7 -2 -4 11 -11 14 -14 21 -7 17 7 -4 21 -2 30 6 15 12 16 11 3
-5 -12 -15 -12 -17 2 -11 19 7 31 34 15 34 -6 0 -8 3 -5 6 4 4 13 1 21 -5 13
-11 15 -9 11 9 -3 17 0 20 12 16 11 -5 14 -2 9 10 -4 12 -2 15 9 11 8 -4 17
-1 21 5 4 7 3 8 -4 4 -7 -4 -12 -2 -12 3 0 6 7 11 15 11 8 0 15 6 15 13 0 7
14 23 31 36 17 13 28 25 25 29 -4 3 -13 -3 -22 -14 -8 -10 -12 -13 -8 -5 12
23 12 71 0 71 -7 0 -6 4 2 9 19 12 19 15 2 36 -12 15 -12 17 -1 10 11 -6 13
-4 8 9 -5 14 -3 17 8 12 8 -3 15 -1 15 4 0 6 -6 10 -14 10 -8 0 -18 5 -22 12
-4 7 -3 8 4 4 7 -4 12 -1 12 8 0 8 3 23 7 33 6 16 5 17 -13 3 -17 -13 -18 -13
-8 0 5 8 10 34 10 58 -1 31 3 42 14 42 12 1 12 3 -2 11 -11 6 -15 16 -11 26 5
12 3 14 -8 8 -12 -8 -12 -6 -1 8 12 14 11 16 -10 12 -22 -4 -22 -4 -4 10 11 8
14 15 7 15 -7 0 -9 4 -6 10 3 6 -1 7 -10 3 -14 -5 -14 -8 -3 -15 10 -8 10 -9
-2 -5 -8 2 -15 13 -14 25 0 12 -3 19 -7 16 -4 -2 -10 0 -14 6 -4 6 -11 8 -16
5 -5 -4 -9 1 -9 10 0 10 -5 13 -12 9 -8 -5 -9 -2 -5 9 4 12 1 17 -9 17 -15 0
-75 44 -71 52 1 2 -3 -2 -8 -8 -8 -9 -16 -9 -30 -1 -14 7 -20 7 -23 -2 -3 -8
-9 -6 -18 6 -12 15 -13 15 -8 1 4 -13 1 -15 -15 -11 -11 3 -18 9 -15 14 6 11
5 11 -26 -7z m55 -432 c-3 -3 -11 0 -18 7 -9 10 -8 11 6 5 10 -3 15 -9 12 -12z"/>
<path d="M4665 5258 c5 -12 -2 -14 -39 -8 -25 4 -51 3 -58 -1 -6 -4 -17 -5
-23 -1 -5 3 -4 -1 3 -10 10 -13 10 -18 1 -24 -8 -4 -9 -3 -5 4 4 7 2 12 -3 12
-14 0 -14 -17 -1 -25 8 -5 7 -12 -2 -23 -9 -11 -9 -14 -1 -9 10 6 11 -10 7
-70 -6 -96 -6 -89 2 -140 4 -32 3 -43 -8 -43 -9 0 -9 -3 -2 -8 6 -4 13 -17 17
-30 4 -17 2 -21 -6 -13 -9 7 -12 2 -14 -16 0 -16 2 -21 7 -14 5 9 9 5 12 -12
3 -17 1 -24 -8 -20 -6 2 -15 -1 -19 -7 -3 -6 -2 -9 3 -8 6 2 11 -1 12 -7 1 -5
6 -18 12 -29 8 -14 7 -17 -3 -11 -9 6 -11 3 -6 -8 4 -10 1 -17 -6 -17 -8 0 -7
-4 3 -9 8 -6 17 -8 21 -5 4 2 13 -4 20 -13 10 -12 10 -14 2 -9 -7 4 -13 3 -13
-2 0 -6 7 -13 16 -16 8 -3 12 -12 9 -18 -4 -7 1 -4 10 7 17 20 17 20 10 -2 -5
-19 -2 -23 17 -24 13 0 17 -3 11 -6 -7 -2 -13 -9 -13 -14 0 -6 5 -7 10 -4 6 3
10 1 10 -4 0 -6 5 -11 11 -11 5 0 7 5 3 12 -4 7 -3 8 5 4 6 -4 9 -11 6 -16 -7
-12 5 -40 17 -40 7 0 6 5 -1 13 -8 10 -7 14 4 14 7 0 14 -3 13 -6 -2 -20 3
-31 12 -26 9 6 14 -8 11 -28 -1 -4 7 -2 18 5 10 6 18 16 17 22 -2 6 -1 8 1 3
3 -4 10 -4 15 -1 7 5 8 2 3 -6 -6 -10 -4 -11 11 -5 18 7 32 9 110 16 26 3 31
7 30 29 -1 15 4 25 13 25 8 0 16 6 19 14 3 9 0 11 -8 6 -8 -5 -11 -4 -7 3 11
17 52 4 52 -17 0 -13 32 -40 39 -33 4 3 4 -2 0 -12 -6 -16 -8 -17 -16 -2 -5 9
-14 16 -19 16 -6 0 -3 -8 6 -17 10 -9 34 -17 54 -18 20 0 35 -5 34 -10 -2 -6
-7 -10 -12 -10 -5 0 -12 -3 -16 -7 -9 -9 17 -5 33 6 7 4 11 15 8 25 -4 9 2 5
12 -8 15 -18 21 -21 27 -11 5 9 4 11 -3 6 -7 -4 -12 -2 -12 3 0 6 7 11 15 11
8 0 15 -4 15 -10 0 -5 5 -10 11 -10 5 0 8 4 5 8 -3 5 1 9 9 9 8 0 15 -4 15 -9
0 -4 5 -8 11 -8 5 0 8 4 5 8 -3 5 5 8 17 7 12 -1 20 -6 19 -11 -2 -5 -8 -8
-14 -6 -5 1 -7 -2 -3 -8 5 -8 11 -8 21 1 7 6 11 16 7 21 -3 6 0 8 8 6 8 -3 13
-11 11 -17 -1 -7 2 -10 7 -6 6 3 7 13 4 23 -6 15 -5 16 13 2 15 -11 16 -11 7
0 -18 20 -16 30 5 24 16 -5 16 -5 0 6 -10 6 -18 19 -18 28 1 16 2 16 14 0 18
-25 29 -23 14 2 -7 11 -19 20 -27 20 -11 0 -10 4 5 16 16 13 16 15 2 10 -10
-3 -18 -1 -18 4 0 6 9 10 19 10 11 0 22 4 25 8 3 5 -5 8 -17 8 -22 -1 -24 5
-11 38 4 12 4 17 -2 13 -6 -3 -11 3 -11 14 -2 18 14 25 42 19 5 -1 6 2 2 7 -5
4 -16 8 -24 8 -9 0 -18 6 -20 13 -3 6 0 12 7 12 6 0 8 -6 4 -12 -5 -10 -4 -10
6 -1 14 13 4 37 -12 27 -6 -4 -8 -2 -4 4 3 6 15 9 26 7 12 -2 18 0 15 6 -4 5
-9 7 -13 5 -4 -2 -15 2 -25 9 -16 11 -16 13 -2 19 9 3 13 2 10 -4 -3 -6 -2
-10 4 -10 12 0 11 41 -3 58 -5 8 -10 29 -11 48 -1 33 -1 33 25 17 l25 -16 -24
27 c-14 14 -21 26 -17 26 4 0 2 8 -3 18 -6 12 -6 23 1 33 8 11 8 9 3 -6 -5
-15 -3 -17 6 -8 9 9 8 17 -4 34 -12 16 -13 27 -6 41 5 10 6 18 2 18 -4 1 3 7
17 15 l25 15 -27 -6 c-18 -4 -28 -2 -28 6 0 6 4 9 10 5 5 -3 7 8 5 26 -5 38
-23 53 -44 36 -10 -8 -13 -8 -8 -1 4 7 0 14 -8 17 -9 4 -12 1 -8 -9 4 -12 1
-13 -19 -5 -15 6 -31 5 -42 -1 -14 -8 -17 -7 -12 1 8 13 0 13 -29 1 -14 -5
-26 -2 -39 9 -11 9 -16 10 -12 4 5 -9 -2 -13 -24 -13 -18 0 -29 -4 -25 -10 3
-5 -1 -10 -10 -10 -9 0 -14 4 -10 9 3 5 1 12 -4 15 -5 4 -8 -2 -6 -11 1 -10
-2 -24 -8 -31 -5 -7 -7 -15 -3 -19 3 -3 6 -1 6 5 0 7 8 12 18 12 14 0 15 -2 2
-10 -14 -9 -7 -15 14 -11 5 1 4 -5 -3 -13 -7 -8 -9 -21 -5 -27 4 -8 3 -9 -4
-5 -7 4 -13 2 -13 -3 -2 -14 -6 -30 -9 -33 -6 -9 -7 -37 0 -33 4 3 13 -2 19
-9 8 -10 9 -16 1 -21 -6 -3 -7 -12 -3 -18 10 -17 11 -47 1 -41 -4 3 -9 0 -9
-5 -2 -14 -6 -30 -9 -33 -6 -9 -7 -37 0 -33 4 3 13 -2 19 -9 9 -10 9 -16 1
-21 -8 -5 -8 -11 1 -21 7 -8 7 -14 1 -14 -15 0 -22 26 -9 39 8 8 8 11 -1 11
-12 0 -16 -12 -13 -37 1 -7 -4 -13 -11 -13 -10 0 -9 -3 1 -9 8 -5 23 -8 33 -6
10 2 16 0 13 -6 -4 -5 -10 -7 -15 -4 -4 3 -13 -2 -20 -11 -10 -12 -11 -17 -1
-27 10 -9 11 -8 6 6 -4 9 -3 17 3 17 16 0 24 -18 12 -25 -6 -4 -8 -11 -4 -16
3 -5 0 -17 -8 -26 -11 -14 -10 -15 12 -10 14 4 19 4 13 1 -7 -3 -13 -12 -13
-19 0 -7 6 -16 13 -18 9 -4 8 -6 -2 -6 -11 -1 -11 -4 0 -18 12 -16 12 -17 -2
-6 -15 12 -29 8 -29 -9 0 -4 5 -7 12 -6 7 2 12 -1 13 -7 0 -5 4 -16 8 -22 5
-7 7 -13 5 -14 -31 -7 -36 -5 -33 12 2 11 0 17 -6 14 -5 -4 -8 -1 -7 6 2 6 -7
12 -19 14 -13 1 -26 5 -30 10 -5 4 2 6 13 3 12 -3 28 -1 35 4 11 8 10 9 -3 4
-10 -3 -18 0 -18 5 0 6 8 9 18 7 12 -3 18 1 18 12 0 16 -3 16 -21 4 -12 -8
-25 -11 -30 -7 -4 5 -5 2 0 -5 6 -11 3 -12 -14 -3 -11 7 -21 14 -21 17 0 3 5
2 12 -2 7 -4 8 -3 4 4 -5 8 -15 8 -32 2 -37 -14 -39 -13 -18 11 19 22 19 22
-3 8 -13 -8 -23 -17 -23 -22 0 -4 -5 -5 -10 -2 -8 5 -7 11 1 21 14 17 -2 19
-21 2 -12 -11 -12 -10 -2 3 6 9 8 20 4 24 -4 5 -2 5 4 2 6 -3 11 0 11 7 0 8
-7 12 -16 9 -10 -3 -12 -2 -6 4 6 4 10 15 10 23 -1 8 3 23 7 33 5 10 5 17 -2
17 -5 0 -10 -5 -10 -12 0 -6 -3 -8 -7 -4 -5 4 1 14 11 22 11 8 14 14 7 14 -7
0 -9 5 -6 10 4 6 12 7 18 3 7 -4 7 0 -1 10 -8 9 -11 20 -8 25 3 6 -1 15 -9 22
-17 14 -20 30 -4 30 5 0 7 -4 4 -10 -3 -5 -2 -10 4 -10 13 0 2 62 -13 72 -11
7 16 13 39 8 5 -1 6 2 2 7 -5 4 -14 8 -20 8 -7 0 -11 11 -9 25 2 20 1 22 -7
10 -8 -11 -11 -11 -11 -2 0 7 7 15 16 19 13 5 13 7 2 14 -10 6 -9 12 7 24 11
9 15 14 10 11 -6 -2 -17 -1 -25 5 -12 7 -11 9 4 9 18 0 18 1 3 18 -13 15 -14
21 -4 31 9 11 9 14 0 18 -7 3 -13 12 -13 21 0 15 -2 15 -10 2 -5 -8 -10 -10
-10 -4 0 7 -11 9 -25 6 -16 -3 -25 0 -25 9 0 8 -6 5 -15 -7 -8 -10 -15 -14
-15 -7 0 6 -9 9 -20 6 -11 -3 -27 0 -35 7 -13 11 -14 10 -10 -2z m368 -155
c-5 -12 -3 -14 7 -8 8 5 11 4 6 -3 -4 -6 -13 -9 -22 -5 -10 4 -12 9 -4 18 5 6
6 16 2 20 -4 5 -2 5 5 1 7 -4 9 -14 6 -23z m0 -160 c-5 -12 -3 -14 7 -8 8 5
11 4 6 -3 -4 -6 -13 -9 -22 -5 -10 4 -12 9 -4 18 5 6 6 16 2 20 -4 5 -2 5 5 1
7 -4 9 -14 6 -23z m287 -37 c0 -3 -4 -8 -10 -11 -5 -3 -10 -1 -10 4 0 6 5 11
10 11 6 0 10 -2 10 -4z"/>
<path d="M4251 5234 c6 -7 16 -11 21 -8 11 7 3 17 -18 20 -12 2 -13 -1 -3 -12z"/>
<path d="M5326 5215 c-3 -8 0 -17 6 -21 6 -4 8 -3 4 4 -3 5 -1 12 6 14 8 3 9
6 1 11 -6 4 -13 0 -17 -8z"/>
<path d="M4845 5200 c-3 -5 -1 -10 4 -10 6 0 11 5 11 10 0 6 -2 10 -4 10 -3 0
-8 -4 -11 -10z"/>
<path d="M5003 5155 c-6 -14 -7 -23 -2 -19 13 8 31 44 22 44 -4 0 -13 -11 -20
-25z"/>
<path d="M5439 5143 c-13 -16 -12 -17 4 -4 9 7 17 15 17 17 0 8 -8 3 -21 -13z"/>
<path d="M5323 5131 c-8 -12 -8 -22 -1 -32 8 -11 9 -11 4 3 -3 10 1 21 11 26
8 5 11 12 6 15 -5 3 -14 -2 -20 -12z"/>
<path d="M6007 5097 c-14 -22 -13 -23 10 -25 21 -2 23 0 13 13 -6 8 -9 19 -5
25 13 21 -3 9 -18 -13z"/>
<path d="M5006 5044 c-5 -14 -4 -15 9 -4 17 14 19 20 6 20 -5 0 -12 -7 -15
-16z"/>
<path d="M3913 5032 c1 -12 6 -18 15 -15 7 3 10 9 5 12 -4 3 -11 10 -15 15 -4
4 -6 -1 -5 -12z"/>
<path d="M5335 5021 c-3 -5 -2 -12 3 -15 5 -3 9 1 9 9 0 17 -3 19 -12 6z"/>
<path d="M5003 4995 c-6 -14 -7 -23 -2 -19 13 8 31 44 22 44 -4 0 -13 -11 -20
-25z"/>
<path d="M4093 4975 c0 -8 4 -12 9 -9 5 3 6 10 3 15 -9 13 -12 11 -12 -6z"/>
<path d="M4413 4970 c1 -21 10 -18 13 5 1 8 -2 15 -6 15 -5 0 -8 -9 -7 -20z"/>
<path d="M5315 4940 c-3 -5 -1 -10 4 -10 6 0 11 5 11 10 0 6 -2 10 -4 10 -3 0
-8 -4 -11 -10z"/>
<path d="M5439 4903 c-13 -16 -12 -17 4 -4 9 7 17 15 17 17 0 8 -8 3 -21 -13z"/>
<path d="M5766 4837 c3 -10 9 -15 12 -12 3 3 0 11 -7 18 -10 9 -11 8 -5 -6z"/>
<path d="M4413 4795 c0 -8 4 -12 9 -9 4 3 8 9 8 15 0 5 -4 9 -8 9 -5 0 -9 -7
-9 -15z"/>
<path d="M4855 4800 c-3 -5 -1 -10 4 -10 6 0 11 5 11 10 0 6 -2 10 -4 10 -3 0
-8 -4 -11 -10z"/>
<path d="M5810 4766 c0 -14 29 -30 38 -21 3 3 0 5 -7 5 -7 0 -10 4 -7 9 3 5
-1 11 -9 15 -9 3 -15 0 -15 -8z"/>
<path d="M4413 4755 c0 -8 4 -12 9 -9 4 3 8 9 8 15 0 5 -4 9 -8 9 -5 0 -9 -7
-9 -15z"/>
<path d="M5760 4761 c0 -6 4 -13 10 -16 6 -3 7 1 4 9 -7 18 -14 21 -14 7z"/>
<path d="M5325 4744 c13 -14 14 -19 3 -25 -7 -5 -8 -9 -2 -9 6 0 14 3 17 6 8
9 -11 44 -24 44 -6 0 -3 -7 6 -16z"/>
<path d="M4980 4720 c-9 -6 -10 -10 -3 -10 6 0 15 5 18 10 8 12 4 12 -15 0z"/>
<path d="M3610 4696 c0 -2 7 -7 16 -10 8 -3 12 -2 9 4 -6 10 -25 14 -25 6z"/>
<path d="M4385 4669 c-11 -16 -1 -19 13 -3 7 8 8 14 3 14 -5 0 -13 -5 -16 -11z"/>
<path d="M5440 4670 c-9 -6 -10 -10 -3 -10 6 0 15 5 18 10 8 12 4 12 -15 0z"/>
<path d="M3673 4637 c0 -8 6 -14 14 -14 9 0 10 4 2 14 -6 7 -12 13 -14 13 -1
0 -2 -6 -2 -13z"/>
<path d="M3996 4619 c3 -5 9 -7 14 -4 4 3 11 0 13 -5 3 -6 4 -5 3 1 -1 7 -10
13 -19 15 -9 1 -15 -2 -11 -7z"/>
<path d="M5760 4621 c0 -6 4 -13 10 -16 6 -3 7 1 4 9 -7 18 -14 21 -14 7z"/>
<path d="M4976 4605 c-3 -8 -1 -15 4 -15 6 0 10 7 10 15 0 8 -2 15 -4 15 -2 0
-6 -7 -10 -15z"/>
<path d="M3998 4588 c-7 -17 15 -19 29 -3 4 4 3 5 -4 2 -6 -4 -13 -2 -15 5 -3
8 -6 6 -10 -4z"/>
<path d="M4139 4523 c-13 -16 -12 -17 4 -4 9 7 17 15 17 17 0 8 -8 3 -21 -13z"/>
<path d="M4815 4531 c-3 -5 -2 -12 3 -15 5 -3 9 1 9 9 0 17 -3 19 -12 6z"/>
<path d="M4865 4529 c-11 -16 -1 -19 13 -3 7 8 8 14 3 14 -5 0 -13 -5 -16 -11z"/>
<path d="M5693 4525 c0 -8 4 -12 9 -9 5 3 6 10 3 15 -9 13 -12 11 -12 -6z"/>
<path d="M6645 5069 c-9 -14 17 -22 26 -8 6 10 11 11 17 3 4 -6 15 -11 25 -11
13 0 15 3 7 11 -13 13 -68 17 -75 5z"/>
<path d="M6863 5067 c0 -7 9 -13 19 -13 10 0 18 1 18 3 0 1 -8 7 -18 12 -13 7
-19 6 -19 -2z"/>
<path d="M6870 4861 c0 -6 6 -11 13 -11 8 0 7 -3 -3 -10 -8 -5 -12 -12 -9 -15
4 -3 11 1 18 8 9 11 8 17 -4 27 -10 9 -15 9 -15 1z"/>
<path d="M6726 4723 c-6 -14 -5 -15 5 -6 7 7 10 15 7 18 -3 3 -9 -2 -12 -12z"/>
<path d="M5390 7204 c0 -20 27 -37 36 -23 4 7 3 9 -4 5 -6 -3 -15 2 -21 11 -6
10 -11 13 -11 7z"/>
<path d="M5441 7153 c-1 -17 16 -25 25 -12 4 7 3 9 -4 5 -5 -3 -13 0 -15 6 -4
9 -6 10 -6 1z"/>
<path d="M3150 7120 c0 -5 5 -10 11 -10 5 0 7 5 4 10 -3 6 -8 10 -11 10 -2 0
-4 -4 -4 -10z"/>
<path d="M3153 7040 c-1 -10 5 -21 14 -24 12 -5 13 -4 5 7 -7 8 -9 16 -6 19 3
3 1 8 -3 11 -5 3 -9 -3 -10 -13z"/>
<path d="M5550 7043 c0 -6 8 -17 18 -24 16 -13 16 -13 2 6 -8 11 -16 22 -17
24 -2 2 -3 0 -3 -6z"/>
<path d="M3153 6880 c-1 -10 5 -21 14 -24 12 -5 13 -4 5 7 -7 8 -9 16 -6 19 3
3 1 8 -3 11 -5 3 -9 -3 -10 -13z"/>
<path d="M3145 6800 c-3 -5 -1 -10 4 -10 6 0 11 5 11 10 0 6 -2 10 -4 10 -3 0
-8 -4 -11 -10z"/>
<path d="M3153 6685 c0 -8 4 -12 9 -9 5 3 6 10 3 15 -9 13 -12 11 -12 -6z"/>
<path d="M5951 6649 c-1 -9 7 -23 17 -30 15 -12 16 -12 6 1 -6 8 -14 22 -17
30 -5 13 -6 12 -6 -1z"/>
<path d="M6000 6591 c0 -6 4 -13 10 -16 6 -3 7 1 4 9 -7 18 -14 21 -14 7z"/>
<path d="M3154 6572 c3 -5 0 -13 -6 -15 -9 -4 -10 -6 -1 -6 17 -1 25 16 12 25
-7 4 -9 3 -5 -4z"/>
<path d="M3153 6445 c0 -8 4 -12 9 -9 5 3 6 10 3 15 -9 13 -12 11 -12 -6z"/>
<path d="M3154 6332 c3 -5 0 -13 -6 -15 -9 -4 -10 -6 -1 -6 17 -1 25 16 12 25
-7 4 -9 3 -5 -4z"/>
<path d="M6350 6243 c0 -6 8 -17 18 -24 16 -13 16 -13 2 6 -8 11 -16 22 -17
24 -2 2 -3 0 -3 -6z"/>
<path d="M3153 6205 c0 -8 4 -12 9 -9 5 3 6 10 3 15 -9 13 -12 11 -12 -6z"/>
<path d="M6452 6130 c7 -10 14 -18 15 -16 6 6 -9 36 -18 36 -5 0 -4 -9 3 -20z"/>
<path d="M3154 6092 c3 -5 0 -13 -6 -15 -9 -4 -10 -6 -1 -6 17 -1 25 16 12 25
-7 4 -9 3 -5 -4z"/>
<path d="M6523 6046 c0 -8 6 -17 14 -20 7 -3 13 -12 13 -20 0 -8 4 -17 9 -20
14 -9 2 26 -18 53 -13 16 -18 19 -18 7z"/>
<path d="M3153 5965 c0 -8 4 -12 9 -9 5 3 6 10 3 15 -9 13 -12 11 -12 -6z"/>
<path d="M3154 5852 c3 -5 0 -13 -6 -15 -9 -4 -10 -6 -1 -6 17 -1 25 16 12 25
-7 4 -9 3 -5 -4z"/>
<path d="M3153 5725 c0 -8 4 -12 9 -9 5 3 6 10 3 15 -9 13 -12 11 -12 -6z"/>
<path d="M6545 5607 c-15 -12 -16 -15 -4 -22 8 -5 11 -5 7 0 -4 4 0 14 10 21
23 18 11 18 -13 1z"/>
<path d="M1977 5443 c6 -16 5 -17 -13 -3 -15 11 -16 11 -6 0 17 -20 15 -35 -4
-20 -13 11 -20 8 -44 -18 -16 -18 -31 -28 -34 -23 -4 5 -1 12 4 14 6 3 5 4 -2
3 -7 -2 -12 -9 -10 -16 1 -7 -2 -18 -8 -24 -5 -7 -6 -17 -2 -21 4 -5 2 -5 -5
-1 -7 4 -10 14 -7 24 5 14 4 15 -5 2 -6 -8 -11 -24 -12 -35 0 -11 -3 -14 -6
-7 -7 19 -23 4 -16 -16 6 -14 4 -15 -9 -4 -13 10 -18 10 -24 1 -4 -7 -3 -9 3
-6 6 4 13 1 16 -7 4 -10 0 -12 -14 -9 -11 3 -19 0 -19 -6 0 -7 5 -9 12 -5 7 4
8 3 4 -4 -4 -7 -14 -12 -22 -12 -12 0 -13 -4 -3 -22 10 -18 9 -20 -7 -14 -18
6 -18 5 0 -9 12 -9 15 -15 7 -15 -11 0 -11 -3 0 -17 10 -12 11 -15 1 -9 -12 7
-11 -15 4 -61 2 -7 -4 -13 -12 -13 -8 0 -12 -5 -9 -10 4 -6 10 -8 15 -5 4 3 6
-4 3 -15 -3 -11 -9 -17 -14 -14 -5 3 -6 -2 -3 -10 3 -9 11 -13 16 -10 7 5 7 1
1 -10 -5 -10 -7 -38 -3 -62 4 -27 3 -47 -3 -51 -6 -4 -7 -1 -2 7 5 9 4 11 -3
6 -18 -11 -14 -26 6 -27 9 0 12 -3 6 -5 -8 -3 -9 -16 -4 -39 7 -29 5 -35 -9
-36 -12 0 -12 -2 4 -9 11 -5 14 -9 6 -9 -11 -1 -11 -4 -1 -16 11 -13 10 -14
-6 -8 -16 6 -17 5 -6 -9 7 -9 12 -23 10 -32 -2 -8 6 -22 17 -30 l20 -16 -20 6
c-18 5 -18 4 -2 -6 9 -6 21 -9 26 -5 5 3 13 0 17 -6 4 -8 3 -9 -4 -5 -7 4 -12
2 -12 -3 0 -6 5 -11 11 -11 5 0 7 -4 4 -10 -3 -5 -2 -10 4 -10 5 0 12 6 14 13
3 6 6 3 7 -8 1 -27 26 -59 35 -46 3 6 12 11 18 10 9 0 9 -2 0 -6 -7 -2 -13 -9
-13 -14 0 -6 5 -7 12 -3 7 5 9 2 5 -9 -4 -12 -1 -15 14 -12 11 2 22 -2 26 -10
3 -8 9 -15 15 -15 5 0 6 5 2 11 -5 8 -1 8 14 0 24 -13 35 -14 29 -3 -10 14 74
7 84 -8 8 -12 10 -9 5 10 -4 22 -4 23 8 8 13 -17 32 -26 23 -10 -3 4 28 7 69
8 41 0 74 -3 74 -8 0 -5 -4 -7 -9 -3 -5 3 -13 0 -17 -6 -5 -8 -8 -8 -14 1 -5
8 -9 8 -13 -3 -6 -15 15 -18 29 -4 4 4 13 2 21 -5 8 -6 13 -7 12 -2 -4 21 1
39 9 28 5 -8 13 -5 26 7 15 14 16 19 5 19 -12 0 -11 2 1 10 13 9 13 10 0 10
-13 0 -13 1 0 10 13 9 13 10 0 10 -13 0 -13 1 0 10 13 9 13 10 0 11 -10 0 -8
3 5 9 15 7 16 9 4 9 -12 1 -16 9 -14 31 2 28 0 30 -32 30 -23 0 -32 -4 -27
-12 4 -7 3 -8 -4 -4 -6 4 -9 13 -6 20 3 8 0 17 -6 21 -6 3 -10 3 -9 -2 5 -26
-2 -32 -26 -23 -13 5 -26 6 -29 1 -3 -4 -24 -7 -48 -5 -58 2 -62 3 -55 10 3 3
2 17 -4 31 -7 18 -6 22 4 17 6 -4 3 3 -8 16 -11 13 -14 20 -7 16 19 -11 35 3
21 20 -6 8 -9 17 -5 21 3 3 -2 15 -11 26 -16 17 -16 20 -2 30 9 7 14 18 11 25
-2 7 1 19 8 26 7 10 8 16 0 21 -5 3 -10 17 -10 30 0 13 -6 26 -12 28 -8 3 -7
6 4 6 9 1 20 6 23 11 4 6 1 9 -7 8 -9 -2 -12 5 -10 22 2 20 1 22 -7 10 -7 -9
-11 -10 -11 -3 0 7 8 17 18 22 9 6 11 11 5 11 -15 0 -18 30 -3 30 5 0 7 7 4
15 -4 8 -1 22 5 29 9 11 9 16 0 22 -7 4 -9 3 -6 -3 4 -6 0 -16 -8 -23 -14 -11
-14 -10 -5 15 8 22 8 30 -2 37 -10 6 -10 8 0 8 6 0 12 7 12 16 0 9 -5 12 -12
8 -7 -5 -8 -3 -4 5 5 7 15 10 23 6 12 -4 13 -2 5 8 -7 7 -13 22 -15 33 -1 10
-6 25 -10 31 -6 9 -3 11 9 6 14 -5 15 -3 4 18 -13 23 -12 23 6 9 18 -14 18
-14 5 3 -8 10 -20 16 -27 13 -8 -3 -11 0 -7 10 5 12 -12 19 -39 15 -4 0 -5 5
-2 13 3 8 1 17 -5 21 -7 4 -8 -1 -4 -12z m77 -482 c3 -5 0 -13 -7 -19 -10 -8
-13 -6 -13 9 0 20 11 25 20 10z m1 -151 c3 -6 -1 -7 -9 -4 -18 7 -21 14 -7 14
6 0 13 -4 16 -10z"/>
<path d="M2120 5442 c6 -13 16 -20 23 -16 7 4 9 3 4 -1 -11 -13 -49 -17 -42
-5 3 5 1 10 -4 10 -12 0 -14 -13 -4 -24 10 -10 13 -36 3 -36 -4 0 -10 -9 -13
-21 -5 -17 -3 -18 10 -7 14 11 15 10 8 -12 -4 -14 -7 -27 -7 -30 -1 -36 4 -50
17 -50 8 0 15 -6 16 -12 0 -7 4 -4 9 7 5 11 9 14 9 6 1 -11 4 -11 18 0 9 8 14
9 10 3 -4 -7 0 -14 8 -17 9 -4 12 -1 8 9 -4 12 -1 13 21 4 14 -5 26 -6 26 -2
0 13 51 6 60 -8 5 -8 7 -32 5 -55 -2 -22 -1 -34 2 -28 3 9 10 9 28 -3 18 -11
25 -12 31 -3 4 8 3 9 -4 5 -7 -4 -12 -2 -12 4 0 7 7 9 16 6 9 -3 18 -6 21 -6
3 0 -1 -8 -8 -17 -12 -16 -12 -17 1 -7 8 6 25 10 37 9 19 -1 21 1 10 14 -10
13 -7 12 16 -2 20 -13 27 -14 27 -4 0 8 12 13 30 12 17 0 30 -3 30 -7 0 -4 11
-7 25 -6 18 2 24 7 20 18 -3 9 1 7 10 -4 14 -19 15 -19 13 9 -2 16 3 30 9 32
7 3 9 13 4 31 -5 15 -7 35 -5 45 1 9 -2 15 -7 11 -5 -3 -9 -1 -9 5 0 6 -7 8
-15 5 -12 -5 -14 -2 -8 12 6 16 5 17 -9 6 -13 -10 -18 -10 -24 -1 -4 8 -3 9 4
5 7 -4 12 -2 12 3 0 6 -4 11 -8 11 -5 0 -17 7 -28 16 -10 8 -13 13 -7 9 9 -4
11 -1 7 9 -3 9 -11 13 -17 9 -6 -4 -8 0 -4 10 4 11 -5 22 -30 37 -25 15 -33
17 -24 6 12 -14 11 -16 -7 -13 -12 2 -25 7 -29 12 -5 4 -1 5 7 0 8 -5 12 -4 7
0 -4 5 -14 10 -22 11 -11 2 -12 -2 -5 -16 8 -15 5 -17 -21 -15 -17 2 -35 7
-40 12 -11 11 -61 5 -55 -6 3 -4 -15 -7 -40 -7 -31 0 -44 5 -44 14 0 12 3 12
18 1 16 -13 16 -12 3 4 -14 18 -16 18 -34 -5 -10 -13 -16 -17 -12 -10 5 10 -7
17 -20 10 -2 -2 -11 6 -20 17 -16 19 -16 19 -5 -3z m204 -28 c3 -8 2 -12 -4
-9 -6 3 -10 10 -10 16 0 14 7 11 14 -7z m154 -3 c11 -7 10 -9 -3 -14 -9 -4
-14 -3 -10 2 3 5 -1 12 -7 14 -7 3 -8 6 -3 6 6 0 16 -3 23 -8z m116 -129 c3
-5 -1 -9 -9 -9 -8 0 -12 4 -9 9 3 4 7 8 9 8 2 0 6 -4 9 -8z m-260 -108 c5 -14
4 -15 -9 -4 -17 14 -19 20 -6 20 5 0 12 -7 15 -16z"/>
<path d="M2255 5449 c-4 -6 -13 -8 -21 -5 -8 3 -11 0 -8 -9 7 -18 37 -12 40 8
3 19 -2 22 -11 6z"/>
<path d="M3153 5440 c-1 -10 5 -21 14 -24 12 -5 13 -4 5 7 -7 8 -9 16 -6 19 3
3 1 8 -3 11 -5 3 -9 -3 -10 -13z"/>
<path d="M2025 5440 c-3 -5 -2 -10 4 -10 5 0 13 5 16 10 3 6 2 10 -4 10 -5 0
-13 -4 -16 -10z"/>
<path d="M2345 5440 c-3 -5 -5 -10 -3 -11 33 -8 38 -7 27 7 -14 17 -16 17 -24
4z"/>
<path d="M2530 5359 c0 -5 5 -7 10 -4 6 3 10 8 10 11 0 2 -4 4 -10 4 -5 0 -10
-5 -10 -11z"/>
<path d="M3145 5330 c-3 -6 1 -7 9 -4 18 7 21 14 7 14 -6 0 -13 -4 -16 -10z"/>
<path d="M7385 5257 c6 -13 1 -14 -29 -7 -20 4 -36 4 -36 -1 0 -4 -8 -5 -17
-2 -12 5 -15 2 -10 -10 4 -11 2 -14 -8 -10 -8 3 -12 10 -8 16 3 6 1 7 -5 3
-12 -7 -5 -36 9 -36 5 0 9 -9 9 -21 0 -11 4 -18 8 -15 5 3 8 -9 7 -25 -1 -18
4 -33 11 -36 8 -3 11 -10 7 -17 -4 -6 1 -5 10 3 19 15 23 1 5 -17 -8 -8 -8
-12 -1 -12 6 0 14 -7 17 -16 5 -12 3 -14 -7 -8 -7 5 -4 1 6 -8 11 -10 14 -18
8 -18 -6 0 -9 -10 -8 -22 4 -22 34 -40 51 -30 5 3 6 0 2 -7 -4 -6 -12 -9 -17
-6 -5 3 -6 -1 -3 -9 3 -9 11 -13 18 -9 6 4 5 -1 -3 -10 -7 -9 -9 -17 -5 -17 5
0 15 -9 22 -21 10 -16 10 -24 1 -35 -6 -7 -16 -11 -22 -7 -6 3 -7 1 -3 -6 4
-6 11 -9 16 -6 4 3 13 -2 20 -10 7 -8 9 -15 4 -15 -5 -1 1 -9 14 -20 15 -12
19 -21 11 -26 -8 -4 -7 -9 2 -15 12 -8 12 -10 1 -18 -11 -7 -10 -9 3 -15 9 -3
13 -11 9 -17 -4 -8 -3 -9 5 -5 9 6 9 11 0 22 -8 10 -8 14 0 14 6 0 12 -4 12
-10 1 -5 2 -16 3 -22 1 -7 -2 -22 -7 -33 -10 -18 -9 -19 8 -5 11 9 16 10 11 3
-4 -8 -2 -13 8 -13 8 0 17 -4 20 -9 3 -4 -7 -7 -22 -5 -15 2 -19 1 -8 -2 13
-4 15 -8 7 -14 -9 -5 -8 -9 4 -13 9 -4 13 -3 10 3 -6 10 8 14 34 10 11 -1 10
2 -2 15 -23 22 -11 42 25 42 28 0 29 -1 12 -14 -15 -11 -15 -13 -2 -13 14 0
17 -16 8 -40 -1 -3 -2 -9 -1 -13 1 -5 -3 -6 -9 -2 -8 5 -7 11 1 21 8 10 8 14
0 14 -11 0 -13 -7 -14 -47 0 -18 -3 -20 -17 -13 -14 8 -16 5 -12 -15 2 -14 -2
-33 -9 -42 -8 -10 -9 -14 -2 -10 6 4 15 3 18 -3 4 -6 1 -9 -6 -8 -6 2 -14 -3
-17 -11 -3 -10 0 -11 9 -5 12 7 12 5 1 -9 -8 -9 -10 -22 -6 -28 4 -7 3 -9 -3
-6 -6 4 -14 0 -17 -9 -4 -9 -9 -14 -13 -11 -3 4 0 13 7 22 7 8 8 15 2 15 -15
0 -21 -22 -15 -55 5 -22 3 -26 -8 -20 -11 7 -12 6 -3 -6 6 -8 9 -26 8 -41 -2
-15 2 -30 7 -33 5 -4 7 -10 5 -14 -3 -4 1 -8 9 -8 10 0 12 4 5 12 -7 8 5 11
40 11 29 0 44 -3 37 -8 -7 -5 -2 -6 13 -4 14 3 33 5 43 5 12 1 16 5 11 14 -5
8 -2 8 9 -2 9 -7 17 -10 17 -6 0 4 11 0 25 -9 14 -9 25 -13 24 -9 -3 21 2 24
19 12 15 -12 16 -12 6 1 -12 16 -15 50 -4 50 3 0 15 7 26 16 10 8 14 13 8 10
-8 -4 -11 5 -10 23 0 16 4 27 8 25 5 -3 8 0 8 6 0 6 4 9 9 6 5 -4 7 4 3 16 -3
14 -1 19 6 14 8 -5 10 -1 5 10 -4 11 -3 15 5 10 6 -3 14 -1 18 5 4 7 3 9 -4 5
-6 -3 -13 -2 -17 4 -6 9 8 14 28 11 5 -1 5 3 2 9 -4 7 -8 24 -9 40 -1 20 2 26
11 23 16 -6 14 18 -2 29 -5 4 0 8 12 8 14 0 22 6 21 18 0 9 3 26 7 36 6 15 5
17 -5 11 -9 -6 -11 -4 -6 4 5 7 14 10 22 7 7 -3 16 0 20 6 4 7 3 8 -4 4 -7 -4
-13 -2 -13 3 -1 6 -2 17 -3 24 -1 6 1 17 5 22 4 6 7 14 7 18 0 5 9 19 21 33
13 15 17 26 9 30 -7 4 -2 14 13 26 13 11 18 17 12 13 -7 -3 -13 -1 -13 4 0 6
6 11 13 11 7 0 4 7 -7 15 -18 13 -17 14 10 11 26 -4 30 -1 30 19 0 13 -3 22
-7 19 -4 -2 -6 3 -5 12 1 8 8 19 16 24 7 5 10 15 6 25 -6 16 -4 16 10 4 16
-13 16 -12 6 8 -17 30 -15 41 3 17 14 -18 14 -18 10 4 -2 12 1 22 7 22 6 0 3
9 -7 20 -18 20 -18 21 0 14 15 -6 17 -4 11 12 -6 15 -5 17 5 7 7 -7 18 -13 23
-13 6 0 5 4 -3 9 -16 11 -5 34 12 24 7 -3 3 4 -7 16 -20 22 -20 22 0 15 17 -7
18 -6 4 11 -14 17 -13 18 3 12 15 -6 16 -4 6 16 -11 20 -11 21 5 8 14 -12 16
-12 10 3 -3 9 -10 16 -16 16 -5 0 -6 5 -2 12 5 8 0 9 -14 6 -12 -4 -20 -3 -17
2 3 4 -2 10 -10 13 -9 4 -12 1 -8 -9 4 -12 1 -13 -23 -4 -21 8 -30 8 -32 0 -3
-7 -10 -4 -18 7 -13 17 -14 17 -8 1 8 -22 0 -23 -20 -2 -14 14 -16 14 -16 0 0
-12 -5 -14 -25 -6 -18 7 -25 6 -26 -3 0 -6 -4 -3 -9 8 -7 15 -9 16 -9 4 -1
-11 -9 -15 -26 -14 -14 2 -23 0 -20 -5 3 -5 -1 -10 -7 -12 -15 -5 -17 -40 -3
-50 6 -4 1 -8 -10 -8 -17 0 -17 -2 -5 -10 12 -8 12 -10 1 -10 -11 0 -11 -3 0
-17 10 -11 10 -14 2 -9 -7 4 -13 2 -13 -3 0 -6 -8 -11 -17 -12 -12 0 -13 -2
-5 -6 10 -4 9 -9 -5 -20 -10 -8 -13 -12 -6 -9 6 4 14 2 17 -3 3 -5 -3 -11 -14
-14 -21 -5 -28 -27 -9 -27 5 0 7 5 3 12 -5 7 -3 8 6 3 10 -6 7 -12 -10 -25
-17 -13 -20 -19 -10 -25 9 -5 11 -4 6 3 -4 7 -2 12 4 12 7 0 10 -6 7 -12 -2
-7 -16 -12 -31 -12 -19 1 -24 -2 -17 -9 13 -13 15 -41 3 -33 -5 3 -9 -1 -9 -9
0 -8 5 -11 10 -8 5 3 7 0 5 -8 -3 -8 -14 -13 -24 -11 -16 2 -16 1 -4 -7 8 -6
15 -21 15 -35 1 -18 -2 -22 -11 -15 -8 6 -14 5 -18 -6 -3 -8 -15 -15 -26 -15
-11 0 -20 -4 -20 -9 0 -6 9 -8 20 -6 24 5 37 -13 16 -21 -9 -3 -16 -10 -16
-16 0 -5 6 -6 13 -2 9 6 9 5 0 -8 -7 -8 -10 -18 -6 -21 3 -4 1 -13 -5 -20 -7
-8 -8 -17 -4 -22 4 -4 -3 -3 -15 4 -14 7 -24 8 -28 1 -3 -5 2 -10 12 -11 14 0
13 -2 -5 -10 -31 -12 -56 1 -36 19 8 7 14 10 14 6 0 -4 11 5 25 20 25 27 33
42 16 32 -4 -3 -17 2 -27 10 -10 9 -14 13 -8 10 16 -8 27 23 14 39 -11 14 11
40 24 28 10 -10 37 -13 31 -3 -3 5 4 11 15 15 23 7 27 22 5 22 -8 0 -12 -4 -9
-9 3 -4 0 -8 -5 -8 -13 0 -15 47 -2 55 6 3 9 14 8 25 -1 10 -5 16 -11 13 -5
-3 -7 5 -4 21 4 18 1 26 -9 26 -8 0 -11 5 -8 10 4 6 10 8 14 6 4 -3 8 1 8 9 0
8 -5 11 -10 8 -7 -4 -8 1 -3 12 5 15 4 16 -8 6 -10 -8 -16 -9 -21 -1 -3 5 4
15 17 20 21 10 21 10 -7 6 -28 -4 -28 -3 -10 10 19 14 19 14 -1 14 -19 1 -19
1 1 16 20 16 20 16 -1 10 -14 -4 -21 -2 -21 8 0 9 4 13 8 10 4 -2 11 1 15 7 4
7 3 9 -3 6 -6 -4 -16 0 -23 8 -10 12 -9 15 6 16 17 0 17 1 -1 9 -12 4 -27 15
-34 24 -7 9 -18 13 -24 9 -6 -3 -7 -1 -3 6 6 8 12 9 20 2 7 -6 17 -7 21 -3 5
4 5 1 0 -7 -5 -10 -4 -12 4 -7 6 4 9 12 5 17 -3 5 -9 7 -14 4 -5 -3 -11 -1
-14 4 -3 5 -22 7 -41 4 -24 -3 -35 -1 -35 8 0 7 -6 4 -15 -7 -8 -10 -15 -14
-15 -7 0 6 -9 9 -20 6 -11 -3 -27 0 -35 7 -13 11 -14 10 -10 -3z m690 -117
c-3 -5 -11 -10 -16 -10 -6 0 -7 5 -4 10 3 6 11 10 16 10 6 0 7 -4 4 -10z
m-688 -156 c-3 -3 -12 -4 -19 -1 -8 3 -5 6 6 6 11 1 17 -2 13 -5z m273 -44 c0
-5 -2 -10 -4 -10 -3 0 -8 5 -11 10 -3 6 -1 10 4 10 6 0 11 -4 11 -10z m-16
-65 c3 -8 1 -15 -4 -15 -6 0 -10 7 -10 15 0 8 2 15 4 15 2 0 6 -7 10 -15z
m-194 -29 c0 -11 -19 -15 -25 -6 -3 5 1 10 9 10 9 0 16 -2 16 -4z m157 -92
c-3 -3 -12 -4 -19 -1 -8 3 -5 6 6 6 11 1 17 -2 13 -5z m194 -287 c-10 -9 -11
-8 -5 6 3 10 9 15 12 12 3 -3 0 -11 -7 -18z"/>
<path d="M2770 5251 c0 -7 -4 -9 -10 -6 -5 3 -10 -1 -10 -10 0 -10 -5 -13 -12
-9 -10 6 -10 5 -1 -7 6 -8 12 -33 11 -56 0 -23 3 -46 6 -52 5 -7 1 -8 -11 -4
-15 5 -16 4 -7 -8 19 -24 23 -69 7 -69 -12 0 -12 -3 1 -16 21 -20 20 -28 -1
-20 -15 5 -15 4 1 -9 14 -11 16 -15 5 -15 -12 0 -12 -2 1 -10 13 -8 12 -10 -3
-10 -17 0 -17 -1 -3 -16 21 -20 20 -28 -1 -20 -17 6 -17 5 -1 -7 15 -12 15
-14 0 -25 -9 -7 -12 -10 -6 -8 8 4 11 -14 12 -54 0 -32 3 -64 7 -69 4 -7 -1
-8 -12 -4 -17 6 -17 5 -2 -13 16 -19 15 -59 -2 -49 -5 3 -6 -1 -3 -9 3 -9 11
-13 16 -10 6 4 5 -3 -1 -15 -9 -16 -9 -21 1 -21 10 0 10 -2 -1 -9 -9 -6 -10
-11 -2 -15 6 -4 9 -11 6 -16 -3 -5 -1 -20 5 -35 8 -20 14 -24 23 -17 6 5 24 8
40 6 18 -2 25 1 21 8 -4 7 -2 8 5 4 6 -4 9 -17 6 -29 -2 -12 -2 -16 1 -9 3 6
13 12 22 12 15 0 15 2 2 11 -12 8 -11 9 5 6 11 -2 19 -9 17 -16 -1 -7 2 -10 8
-6 6 3 8 11 5 16 -4 5 -1 9 4 9 6 0 11 -4 11 -10 0 -5 5 -10 11 -10 5 0 8 4 5
8 -3 5 1 9 9 9 8 0 15 -4 15 -9 0 -4 5 -8 11 -8 5 0 8 3 5 8 -2 4 8 8 24 8 22
1 27 -2 23 -15 -7 -17 -5 -16 17 13 10 13 10 17 3 12 -7 -4 -13 -2 -13 3 0 6
4 11 10 11 5 0 6 7 3 17 -5 12 -3 14 8 8 11 -7 12 -6 3 6 -18 24 -26 51 -11
43 8 -5 7 -2 -2 9 -12 15 -11 17 3 17 10 0 14 5 11 10 -4 6 -10 8 -15 5 -4 -3
-6 4 -3 15 3 11 9 17 14 14 5 -3 6 2 3 10 -3 9 -11 13 -17 9 -6 -4 -7 -1 -3 6
11 17 13 111 3 111 -5 0 -2 7 7 15 15 16 11 49 -5 39 -5 -3 -5 5 0 18 5 15 5
31 0 41 -7 12 -6 17 2 17 8 0 8 4 -1 15 -9 10 -9 15 -1 15 6 0 11 5 11 11 0 5
-6 7 -12 3 -10 -5 -10 -4 -1 6 9 9 9 19 2 33 -8 13 -8 17 -1 13 6 -3 13 -2 17
4 3 5 -2 10 -12 10 -17 1 -17 2 1 15 18 13 15 19 -6 16 -4 0 -3 10 2 24 6 16
6 27 -1 31 -8 4 -8 9 0 14 15 9 -3 60 -21 61 -71 4 -89 3 -92 -6 -3 -5 -5 -4
-5 3 -1 10 -6 10 -22 1 -12 -6 -19 -7 -16 -2 6 10 -81 9 -91 -1 -3 -3 -11 -1
-19 5 -10 9 -13 8 -13 0z m290 -365 c0 -3 -4 -8 -10 -11 -5 -3 -10 -1 -10 4 0
6 5 11 10 11 6 0 10 -2 10 -4z"/>
<path d="M7066 5216 c10 -8 21 -12 24 -10 5 6 -21 24 -34 24 -6 0 -1 -6 10
-14z"/>
<path d="M7588 5213 c7 -3 16 -2 19 1 4 3 -2 6 -13 5 -11 0 -14 -3 -6 -6z"/>
<path d="M2605 5190 c-3 -6 1 -7 9 -4 18 7 21 14 7 14 -6 0 -13 -4 -16 -10z"/>
<path d="M2490 5151 c0 -5 7 -12 16 -15 14 -5 15 -4 4 9 -14 17 -20 19 -20 6z"/>
<path d="M7755 5141 c-3 -5 -2 -12 3 -15 5 -3 9 1 9 9 0 17 -3 19 -12 6z"/>
<path d="M2336 5045 c-6 -17 -9 -17 -17 -5 -9 12 -10 11 -6 -6 3 -16 0 -20
-17 -19 -37 2 -67 16 -60 27 4 7 2 8 -5 4 -6 -4 -9 -12 -5 -17 3 -6 -4 -13
-16 -16 -13 -4 -19 -11 -16 -20 3 -8 6 -17 6 -19 0 -3 6 -2 13 2 6 4 4 -1 -5
-11 -16 -17 -16 -19 0 -32 16 -12 15 -12 -3 -7 -16 6 -18 5 -7 -7 6 -7 12 -17
12 -22 0 -4 -6 -5 -12 -1 -9 5 -9 2 1 -9 9 -12 10 -17 2 -17 -7 0 -10 -4 -7
-9 4 -5 17 -8 31 -6 14 1 25 -3 25 -9 0 -6 5 -4 10 4 8 12 10 12 10 -5 0 -15
2 -17 9 -6 5 7 14 10 20 7 6 -4 11 -2 11 4 0 7 6 8 19 1 10 -6 22 -7 26 -3 5
4 5 1 1 -6 -4 -7 -13 -10 -19 -6 -7 3 -3 -2 7 -10 11 -9 16 -16 10 -16 -9 0
-9 -65 0 -108 3 -13 1 -20 -5 -17 -5 4 -9 1 -9 -4 0 -6 6 -11 13 -11 8 0 7 -4
-3 -10 -13 -9 -13 -10 0 -10 12 0 13 -2 1 -9 -11 -7 -10 -11 5 -20 17 -9 17
-10 2 -11 -9 0 -20 -6 -24 -12 -4 -7 -4 -10 1 -6 8 8 44 -51 40 -67 -1 -5 0
-7 2 -2 3 4 11 7 19 7 9 0 13 4 10 8 -3 5 5 8 17 7 13 -1 22 -8 21 -17 -1 -8
5 -15 12 -15 9 0 10 5 3 19 -12 23 0 24 17 1 12 -16 12 -15 8 7 -5 21 -4 22 6
8 6 -10 19 -18 28 -18 15 0 15 2 2 11 -13 9 -12 10 3 5 10 -3 17 0 17 7 0 9 3
8 9 -1 12 -20 16 -19 42 3 l24 20 -15 -20 c-14 -18 -14 -19 2 -7 9 8 23 11 30
7 7 -4 4 1 -7 10 -11 9 -19 23 -17 32 2 10 -1 12 -9 7 -8 -5 -10 -3 -4 6 13
22 14 80 1 80 -7 0 -7 3 -1 8 14 10 18 49 5 57 -6 3 -7 12 -3 18 12 19 12 71
-1 79 -7 5 -7 8 3 8 10 0 11 3 2 14 -10 12 -8 17 8 26 22 11 28 30 10 30 -5 0
-7 -4 -4 -10 3 -5 1 -10 -5 -10 -6 0 -8 11 -5 28 5 31 -3 65 -14 58 -4 -3 -8
1 -8 9 0 11 5 12 21 4 20 -10 21 -10 2 5 -11 9 -16 16 -11 16 5 0 4 5 -2 11
-8 8 -17 7 -32 -3 -16 -10 -25 -10 -39 -1 -15 9 -19 8 -19 -3 0 -7 5 -10 10
-7 6 3 7 1 4 -4 -4 -6 -21 -9 -39 -8 -18 2 -36 -2 -40 -8 -6 -9 -8 -9 -8 0 0
6 5 15 10 18 13 8 13 25 -1 25 -5 0 -7 -5 -3 -11 5 -8 -3 -10 -24 -7 -27 4
-30 2 -19 -10 10 -13 9 -14 -11 -3 -12 7 -20 17 -16 23 4 6 3 8 -4 4 -5 -3
-12 -1 -14 6 -3 7 -7 4 -12 -7z m15 -28 c-13 -13 -26 -3 -16 12 3 6 11 8 17 5
6 -4 6 -10 -1 -17z m227 9 c-7 -8 -15 -12 -17 -11 -5 6 10 25 20 25 5 0 4 -6
-3 -14z"/>
<path d="M2264 5039 c1 -7 9 -13 18 -15 11 -1 15 3 11 13 -4 11 -8 12 -13 3
-6 -9 -9 -9 -13 -1 -4 8 -5 8 -3 0z"/>
<path d="M2463 5036 c0 -7 6 -13 14 -13 7 0 13 4 13 8 0 4 -6 9 -13 12 -8 3
-14 0 -14 -7z"/>
<path d="M7216 5033 c-6 -14 -5 -15 5 -6 7 7 10 15 7 18 -3 3 -9 -2 -12 -12z"/>
<path d="M2615 4980 c3 -5 8 -10 11 -10 2 0 4 5 4 10 0 6 -5 10 -11 10 -5 0
-7 -4 -4 -10z"/>
<path d="M7400 4882 c6 -13 14 -21 18 -18 3 4 -2 14 -12 24 -18 16 -18 16 -6
-6z"/>
<path d="M2040 4880 c0 -5 5 -10 10 -10 6 0 10 5 10 10 0 6 -4 10 -10 10 -5 0
-10 -4 -10 -10z"/>
<path d="M2609 4877 c6 -8 7 -18 3 -22 -4 -5 -2 -5 5 -1 14 8 6 36 -9 36 -7 0
-6 -5 1 -13z"/>
<path d="M7991 4874 c0 -11 3 -14 6 -6 3 7 2 16 -1 19 -3 4 -6 -2 -5 -13z"/>
<path d="M7210 4866 c0 -2 7 -7 16 -10 8 -3 12 -2 9 4 -6 10 -25 14 -25 6z"/>
<path d="M3144 4848 c3 -15 26 -23 26 -8 0 6 -4 9 -9 6 -5 -4 -12 -1 -14 4 -3
6 -4 5 -3 -2z"/>
<path d="M7605 4840 c-3 -5 -1 -10 4 -10 6 0 11 5 11 10 0 6 -2 10 -4 10 -3 0
-8 -4 -11 -10z"/>
<path d="M2619 4805 c-1 -3 -2 -8 -3 -12 -1 -5 -4 -13 -8 -18 -3 -6 0 -19 8
-30 8 -10 14 -14 14 -8 0 7 -5 15 -10 18 -6 4 -7 12 -3 18 9 14 13 37 7 37 -2
0 -5 -2 -5 -5z"/>
<path d="M3140 4780 c-8 -5 -10 -10 -5 -10 6 0 17 5 25 10 8 5 11 10 5 10 -5
0 -17 -5 -25 -10z"/>
<path d="M7210 4786 c0 -2 7 -7 16 -10 8 -3 12 -2 9 4 -6 10 -25 14 -25 6z"/>
<path d="M7934 4775 c-10 -8 -15 -15 -10 -15 5 0 3 -6 -3 -13 -8 -10 -7 -14 4
-14 8 0 12 4 9 9 -3 4 0 8 7 8 7 0 9 3 6 7 -4 3 -2 12 4 20 15 17 8 17 -17 -2z"/>
<path d="M2075 4731 c-3 -5 -2 -12 3 -15 5 -3 9 1 9 9 0 17 -3 19 -12 6z"/>
<path d="M3154 4732 c3 -5 0 -13 -6 -15 -8 -3 -6 -6 5 -6 19 -1 23 14 5 25 -6
4 -8 3 -4 -4z"/>
<path d="M7620 4730 c-9 -6 -10 -10 -3 -10 6 0 15 5 18 10 8 12 4 12 -15 0z"/>
<path d="M2613 4705 c0 -8 4 -12 9 -9 5 3 6 10 3 15 -9 13 -12 11 -12 -6z"/>
<path d="M3147 4665 c3 -8 9 -12 14 -9 12 7 11 11 -5 17 -10 4 -13 1 -9 -8z"/>
<path d="M2613 4630 c1 -21 10 -18 13 5 1 8 -2 15 -6 15 -5 0 -8 -9 -7 -20z"/>
<path d="M7210 4621 c0 -6 4 -12 8 -15 5 -3 9 1 9 9 0 8 -4 15 -9 15 -4 0 -8
-4 -8 -9z"/>
<path d="M3153 4605 c0 -8 4 -12 9 -9 5 3 6 10 3 15 -9 13 -12 11 -12 -6z"/>
<path d="M2735 4560 c3 -5 8 -10 11 -10 2 0 4 5 4 10 0 6 -5 10 -11 10 -5 0
-7 -4 -4 -10z"/>
<path d="M2345 4551 c-3 -5 -2 -12 3 -15 5 -3 9 1 9 9 0 17 -3 19 -12 6z"/>
<path d="M6795 4550 c-3 -5 -1 -10 4 -10 6 0 11 5 11 10 0 6 -2 10 -4 10 -3 0
-8 -4 -11 -10z"/>
<path d="M2037 4527 c-3 -8 1 -14 8 -14 7 0 11 6 8 14 -3 7 -6 13 -8 13 -2 0
-5 -6 -8 -13z"/>
<path d="M2136 4532 c-3 -4 4 -9 15 -9 23 -2 25 3 4 10 -8 4 -16 3 -19 -1z"/>
<path d="M2541 4524 c0 -11 3 -14 6 -6 3 7 2 16 -1 19 -3 4 -6 -2 -5 -13z"/>
<path d="M2796 4531 c8 -8 43 -8 38 0 -2 4 -13 7 -24 6 -10 -1 -17 -3 -14 -6z"/>
<path d="M3001 4524 c0 -11 3 -14 6 -6 3 7 2 16 -1 19 -3 4 -6 -2 -5 -13z"/>
<path d="M6670 4536 c0 -2 7 -7 16 -10 8 -3 12 -2 9 4 -6 10 -25 14 -25 6z"/>
<path d="M7160 4531 c0 -6 4 -13 10 -16 6 -3 7 1 4 9 -7 18 -14 21 -14 7z"/>
<path d="M6610 4519 c0 -5 5 -7 10 -4 6 3 10 8 10 11 0 2 -4 4 -10 4 -5 0 -10
-5 -10 -11z"/>
<path d="M6775 4520 c-3 -6 1 -7 9 -4 18 7 21 14 7 14 -6 0 -13 -4 -16 -10z"/>
<path d="M6535 4510 c-3 -5 -1 -10 4 -10 6 0 11 5 11 10 0 6 -2 10 -4 10 -3 0
-8 -4 -11 -10z"/>
<path d="M3154 4492 c3 -5 0 -13 -6 -15 -9 -4 -10 -6 -1 -6 17 -1 25 16 12 25
-7 4 -9 3 -5 -4z"/>
<path d="M3153 4365 c0 -8 4 -12 9 -9 5 3 6 10 3 15 -9 13 -12 11 -12 -6z"/>
<path d="M7467 4323 c5 -12 3 -14 -7 -8 -9 5 -11 4 -6 -4 6 -9 11 -9 22 0 17
14 17 16 0 22 -11 4 -13 1 -9 -10z"/>
<path d="M7475 4280 c3 -5 8 -10 11 -10 2 0 4 5 4 10 0 6 -5 10 -11 10 -5 0
-7 -4 -4 -10z"/>
<path d="M7550 4281 c0 -6 4 -13 10 -16 6 -3 7 1 4 9 -7 18 -14 21 -14 7z"/>
<path d="M7676 4278 c3 -5 10 -6 15 -3 13 9 11 12 -6 12 -8 0 -12 -4 -9 -9z"/>
<path d="M3153 4205 c0 -8 4 -12 9 -9 5 3 6 10 3 15 -9 13 -12 11 -12 -6z"/>
<path d="M6541 4197 c-13 -21 -12 -21 5 -5 10 10 16 20 13 22 -3 3 -11 -5 -18
-17z"/>
<path d="M3154 4092 c3 -5 0 -13 -6 -15 -9 -4 -10 -6 -1 -6 17 -1 25 16 12 25
-7 4 -9 3 -5 -4z"/>
<path d="M3153 3965 c0 -8 4 -12 9 -9 5 3 6 10 3 15 -9 13 -12 11 -12 -6z"/>
<path d="M3150 3779 c0 -5 5 -7 10 -4 6 3 10 8 10 11 0 2 -4 4 -10 4 -5 0 -10
-5 -10 -11z"/>
<path d="M3144 3728 c3 -15 26 -23 26 -8 0 6 -4 9 -9 6 -5 -4 -12 -1 -14 4 -3
6 -4 5 -3 -2z"/>
<path d="M6545 3687 c-15 -12 -16 -15 -4 -22 8 -5 11 -5 7 0 -4 4 0 14 10 21
23 18 11 18 -13 1z"/>
<path d="M3153 3605 c0 -8 4 -15 9 -15 4 0 8 4 8 9 0 6 -4 12 -8 15 -5 3 -9
-1 -9 -9z"/>
<path d="M3153 3565 c0 -8 4 -12 9 -9 5 3 6 10 3 15 -9 13 -12 11 -12 -6z"/>
<path d="M3154 3452 c3 -5 0 -13 -6 -15 -9 -4 -10 -6 -1 -6 17 -1 25 16 12 25
-7 4 -9 3 -5 -4z"/>
<path d="M6545 3367 c-15 -12 -16 -15 -4 -22 8 -5 11 -5 7 0 -4 4 0 14 10 21
23 18 11 18 -13 1z"/>
<path d="M3153 3325 c0 -8 4 -12 9 -9 5 3 6 10 3 15 -9 13 -12 11 -12 -6z"/>
<path d="M3154 3212 c3 -5 0 -13 -6 -15 -8 -3 -6 -6 5 -6 19 -1 23 14 5 25 -6
4 -8 3 -4 -4z"/>
<path d="M3147 3145 c3 -8 9 -12 14 -9 12 7 11 11 -5 17 -10 4 -13 1 -9 -8z"/>
<path d="M3153 3085 c0 -8 4 -12 9 -9 5 3 6 10 3 15 -9 13 -12 11 -12 -6z"/>
<path d="M3150 2840 c0 -5 5 -10 11 -10 5 0 7 5 4 10 -3 6 -8 10 -11 10 -2 0
-4 -4 -4 -10z"/>
<path d="M6536 2798 c3 -5 10 -6 15 -3 13 9 11 12 -6 12 -8 0 -12 -4 -9 -9z"/>
<path d="M3396 2793 c-3 -3 -6 -11 -6 -17 0 -6 5 -4 10 4 5 8 10 10 10 4 0 -6
7 -11 15 -11 20 0 19 4 -4 16 -10 6 -21 7 -25 4z"/>
<path d="M3716 2793 c-3 -3 -6 -11 -6 -17 0 -6 5 -4 10 4 5 8 10 10 10 4 0 -6
7 -11 15 -11 20 0 19 4 -4 16 -10 6 -21 7 -25 4z"/>
<path d="M3955 2789 c-4 -6 -5 -12 -2 -15 2 -3 7 2 10 11 7 17 1 20 -8 4z"/>
<path d="M4506 2787 c3 -10 9 -15 12 -12 3 3 0 11 -7 18 -10 9 -11 8 -5 -6z"/>
<path d="M4790 2789 c0 -5 5 -7 10 -4 6 3 10 2 10 -3 0 -5 7 -9 16 -9 14 0 14
2 -2 14 -22 16 -34 17 -34 2z"/>
<path d="M4915 2789 c-4 -6 -5 -12 -2 -15 2 -3 7 2 10 11 7 17 1 20 -8 4z"/>
<path d="M5126 2787 c3 -8 11 -14 19 -14 20 0 19 4 -5 17 -15 8 -18 8 -14 -3z"/>
<path d="M5235 2789 c-4 -6 -5 -12 -2 -15 2 -3 7 2 10 11 7 17 1 20 -8 4z"/>
<path d="M5786 2787 c3 -10 9 -15 12 -12 3 3 0 11 -7 18 -10 9 -11 8 -5 -6z"/>
<path d="M6070 2789 c0 -5 5 -7 10 -4 6 3 10 2 10 -3 0 -5 7 -9 16 -9 14 0 14
2 -2 14 -22 16 -34 17 -34 2z"/>
<path d="M6195 2789 c-4 -6 -5 -12 -2 -15 2 -3 7 2 10 11 7 17 1 20 -8 4z"/>
<path d="M3290 2782 c0 -5 7 -9 15 -9 8 0 12 4 9 9 -3 4 -9 8 -15 8 -5 0 -9
-4 -9 -8z"/>
<path d="M3487 2779 c7 -7 15 -10 18 -7 3 3 -2 9 -12 12 -14 6 -15 5 -6 -5z"/>
<path d="M3636 2778 c3 -5 10 -6 15 -3 13 9 11 12 -6 12 -8 0 -12 -4 -9 -9z"/>
<path d="M3680 2780 c-9 -6 -10 -10 -3 -10 6 0 15 5 18 10 8 12 4 12 -15 0z"/>
<path d="M3807 2779 c7 -7 15 -10 18 -7 3 3 -2 9 -12 12 -14 6 -15 5 -6 -5z"/>
<path d="M3850 2782 c0 -5 7 -9 15 -9 8 0 12 4 9 9 -3 4 -9 8 -15 8 -5 0 -9
-4 -9 -8z"/>
<path d="M4035 2779 c-3 -4 2 -6 10 -5 21 3 28 13 10 13 -9 0 -18 -4 -20 -8z"/>
<path d="M4110 2781 c0 -6 4 -13 10 -16 6 -3 7 1 4 9 -7 18 -14 21 -14 7z"/>
<path d="M4170 2781 c0 -6 4 -13 10 -16 6 -3 7 1 4 9 -7 18 -14 21 -14 7z"/>
<path d="M4250 2781 c0 -6 4 -13 10 -16 6 -3 7 1 4 9 -7 18 -14 21 -14 7z"/>
<path d="M4410 2782 c0 -5 7 -9 15 -9 8 0 12 4 9 9 -3 4 -9 8 -15 8 -5 0 -9
-4 -9 -8z"/>
<path d="M4530 2782 c0 -5 7 -9 15 -9 8 0 12 4 9 9 -3 4 -9 8 -15 8 -5 0 -9
-4 -9 -8z"/>
<path d="M4607 2779 c7 -7 15 -10 18 -7 3 3 -2 9 -12 12 -14 6 -15 5 -6 -5z"/>
<path d="M4650 2781 c0 -6 4 -13 10 -16 6 -3 7 1 4 9 -7 18 -14 21 -14 7z"/>
<path d="M4730 2781 c0 -6 4 -13 10 -16 6 -3 7 1 4 9 -7 18 -14 21 -14 7z"/>
<path d="M4995 2779 c-3 -4 2 -6 10 -5 21 3 28 13 10 13 -9 0 -18 -4 -20 -8z"/>
<path d="M5070 2781 c0 -6 4 -13 10 -16 6 -3 7 1 4 9 -7 18 -14 21 -14 7z"/>
<path d="M5315 2779 c-3 -4 2 -6 10 -5 21 3 28 13 10 13 -9 0 -18 -4 -20 -8z"/>
<path d="M5390 2781 c0 -6 4 -13 10 -16 6 -3 7 1 4 9 -7 18 -14 21 -14 7z"/>
<path d="M5450 2781 c0 -6 4 -13 10 -16 6 -3 7 1 4 9 -7 18 -14 21 -14 7z"/>
<path d="M5530 2781 c0 -6 4 -13 10 -16 6 -3 7 1 4 9 -7 18 -14 21 -14 7z"/>
<path d="M5690 2782 c0 -5 7 -9 15 -9 8 0 12 4 9 9 -3 4 -9 8 -15 8 -5 0 -9
-4 -9 -8z"/>
<path d="M5810 2782 c0 -5 7 -9 15 -9 8 0 12 4 9 9 -3 4 -9 8 -15 8 -5 0 -9
-4 -9 -8z"/>
<path d="M5887 2779 c7 -7 15 -10 18 -7 3 3 -2 9 -12 12 -14 6 -15 5 -6 -5z"/>
<path d="M5930 2781 c0 -6 4 -13 10 -16 6 -3 7 1 4 9 -7 18 -14 21 -14 7z"/>
<path d="M6010 2781 c0 -6 4 -13 10 -16 6 -3 7 1 4 9 -7 18 -14 21 -14 7z"/>
<path d="M6275 2779 c-3 -4 2 -6 10 -5 21 3 28 13 10 13 -9 0 -18 -4 -20 -8z"/>
<path d="M6350 2781 c0 -6 4 -13 10 -16 6 -3 7 1 4 9 -7 18 -14 21 -14 7z"/>
<path d="M6406 2778 c3 -5 10 -6 15 -3 13 9 11 12 -6 12 -8 0 -12 -4 -9 -9z"/>
<path d="M6455 2779 c-4 -6 -5 -12 -2 -15 2 -3 7 2 10 11 7 17 1 20 -8 4z"/>
</g>
</svg>
